<svg width="144" height="20" viewBox="0 0 144 20" fill="none" xmlns="http://www.w3.org/2000/svg">
<g id="Group">
<path id="Vector" d="M16.6601 13.3936C16.6601 13.9756 16.5326 14.5831 16.2268 15.266C15.9463 15.9243 15.5131 16.5824 14.8761 17.2401C14.2643 17.8729 13.4998 18.4045 12.5315 18.8094C11.5885 19.2142 10.4672 19.4167 9.19293 19.4167C8.25014 19.4167 7.35787 19.341 6.56814 19.1384C5.77808 18.9611 5.06432 18.6828 4.42709 18.3032C3.7903 17.9236 3.2038 17.4173 2.64331 16.7847C2.1846 16.2278 1.75158 15.5952 1.42001 14.8867C1.08877 14.1779 0.83394 13.4188 0.655528 12.6344C0.477009 11.8243 0.40081 10.9637 0.40081 10.0779C0.40081 8.61017 0.604585 7.31937 1.03804 6.15525C1.47128 5.01642 2.08282 4.02948 2.87288 3.19409C3.68819 2.38442 4.60572 1.75161 5.67597 1.32159C6.74655 0.891359 7.89332 0.688782 9.09104 0.688782C10.5691 0.688782 11.8946 0.967135 13.0411 1.57465C14.1881 2.15666 15.0802 2.86547 15.6917 3.72572C16.3032 4.58619 16.6092 5.39606 16.6092 6.18065C16.6092 6.58559 16.4562 6.96545 16.176 7.29439C15.8702 7.59805 15.5132 7.77511 15.0802 7.77511C14.6215 7.77511 14.2644 7.64853 14.0352 7.42087C13.7804 7.21851 13.5254 6.81357 13.2451 6.28204C12.7608 5.37088 12.1749 4.71266 11.5375 4.25735C10.8747 3.82711 10.085 3.59946 9.1165 3.59946C7.61291 3.59946 6.38972 4.18146 5.49767 5.32028C4.60561 6.45932 4.1469 8.07887 4.1469 10.2049C4.1469 11.5966 4.35089 12.7864 4.75866 13.7226C5.14095 14.6591 5.70166 15.3426 6.44067 15.8235C7.17989 16.279 8.02068 16.5065 9.01473 16.5065C10.0595 16.5065 10.9516 16.2535 11.6906 15.7219C12.4296 15.1906 12.9904 14.4314 13.3469 13.419C13.5254 12.9382 13.7039 12.5585 13.9334 12.2548C14.1626 11.9512 14.5449 11.7993 15.0545 11.7993C15.5132 11.7993 15.8702 11.9513 16.2015 12.2548C16.5072 12.5585 16.6602 12.9384 16.6602 13.3939L16.6601 13.3936ZM28.3321 17.5186C27.5166 18.1512 26.7008 18.6322 25.9364 18.9358C25.1719 19.265 24.3055 19.4167 23.3625 19.4167C22.4963 19.4167 21.7315 19.2397 21.069 18.9105C20.4062 18.5565 19.8967 18.1008 19.5399 17.5187C19.1829 16.9365 19.0044 16.3039 19.0044 15.6207C19.0044 14.6843 19.3104 13.8997 19.8967 13.2418C20.4828 12.6092 21.2982 12.1536 22.3177 11.951C22.547 11.9003 23.0822 11.7737 23.923 11.5964C24.7898 11.4447 25.5033 11.2675 26.1148 11.1411C26.7265 10.9891 27.389 10.8119 28.1026 10.6096C28.0515 9.72403 27.8733 9.06581 27.5675 8.66109C27.2363 8.23064 26.5735 8.02828 25.5798 8.02828C24.713 8.02828 24.0759 8.15465 23.6427 8.3823C23.184 8.61018 22.8272 8.98982 22.5214 9.47075C22.1902 9.92628 21.9862 10.2553 21.8589 10.4072C21.7315 10.5589 21.4509 10.6351 21.0177 10.6351C20.6357 10.6351 20.3044 10.5082 20.0242 10.2552C19.7689 10.0276 19.6162 9.72392 19.6162 9.34406C19.6162 8.73676 19.8202 8.15454 20.2532 7.59793C20.6865 7.04101 21.3238 6.58548 22.241 6.20616C23.1331 5.8516 24.2546 5.67442 25.5799 5.67442C27.0835 5.67442 28.2557 5.8517 29.0967 6.20616C29.9632 6.56019 30.5493 7.09171 30.9063 7.851C31.2628 8.61018 31.4413 9.62241 31.4413 10.8881C31.4413 11.6727 31.4413 12.3304 31.4413 12.8875C31.4413 13.4441 31.416 14.0514 31.416 14.735C31.416 15.3678 31.5178 16.0255 31.7471 16.709C31.9511 17.3923 32.0528 17.8478 32.0528 18.0504C32.0528 18.3793 31.8998 18.7083 31.5688 18.9868C31.2375 19.2652 30.855 19.4168 30.4475 19.4168C30.0904 19.4168 29.7592 19.2652 29.4025 18.9359C29.0712 18.607 28.7144 18.126 28.3322 17.5187L28.3321 17.5186ZM28.1027 12.6344C27.6184 12.8111 26.8794 13.0137 25.9364 13.2164C24.9936 13.4187 24.3311 13.5704 23.9741 13.6466C23.5918 13.7477 23.2607 13.925 22.9293 14.2032C22.598 14.4816 22.4195 14.8614 22.4195 15.3677C22.4195 15.8737 22.6235 16.3039 23.0058 16.6836C23.3881 17.0381 23.8975 17.2149 24.5349 17.2149C25.1974 17.2149 25.8347 17.0632 26.3952 16.7848C26.9562 16.481 27.3892 16.1016 27.6439 15.646C27.9499 15.1398 28.1027 14.2793 28.1027 13.1151V12.6344ZM38.2457 14.5578V17.3667C38.2457 18.0503 38.0929 18.5565 37.7614 18.9105C37.4301 19.2397 37.0224 19.4167 36.5381 19.4167C36.0538 19.4167 35.6463 19.2397 35.3402 18.8852C35.009 18.5565 34.8559 18.0503 34.8559 17.3667V7.97758C34.8559 6.45911 35.4168 5.69971 36.5125 5.69971C37.073 5.69971 37.481 5.877 37.7358 6.23146C37.965 6.58548 38.1181 7.117 38.1435 7.8003C38.5513 7.117 38.9591 6.58548 39.3923 6.23146C39.8255 5.87689 40.3864 5.69971 41.0999 5.69971C41.8134 5.69971 42.5014 5.877 43.1642 6.23146C43.8523 6.58548 44.1835 7.06641 44.1835 7.64842C44.1835 8.05357 44.0308 8.3823 43.7503 8.66109C43.47 8.93944 43.1642 9.06581 42.833 9.06581C42.7055 9.06581 42.3997 8.98982 41.9154 8.83794C41.4567 8.68628 41.0234 8.61029 40.6667 8.61029C40.1569 8.61029 39.7491 8.73687 39.4434 8.98993C39.1376 9.2685 38.8825 9.64782 38.7044 10.1544C38.5258 10.6604 38.4238 11.2677 38.3476 11.9765C38.2709 12.6851 38.2457 13.5455 38.2457 14.558V14.5578ZM66.5082 13.6719C66.5082 14.7601 66.2279 15.747 65.6672 16.6329C65.0811 17.4933 64.2654 18.1766 63.1697 18.6829C62.0738 19.1638 60.7741 19.4167 59.2705 19.4167C57.4613 19.4167 55.9829 19.0878 54.8107 18.4045C53.9951 17.9236 53.3071 17.2657 52.7973 16.4556C52.2876 15.6459 52.0073 14.8614 52.0073 14.1021C52.0073 13.6466 52.1856 13.2668 52.4915 12.9631C52.7973 12.6344 53.1798 12.4822 53.6636 12.4822C54.0716 12.4822 54.3773 12.6091 54.6576 12.862C54.9381 13.0899 55.1676 13.4693 55.3457 13.9503C55.5752 14.5323 55.83 15.0131 56.1102 15.3927C56.3652 15.7724 56.7474 16.1015 57.2317 16.3545C57.7415 16.6075 58.3787 16.7341 59.1687 16.7341C60.2642 16.7341 61.1565 16.4809 61.8446 15.975C62.5326 15.4687 62.8639 14.8361 62.8639 14.077C62.8639 13.4694 62.6856 12.9885 62.3031 12.6092C61.9464 12.2293 61.4623 11.951 60.876 11.7484C60.2897 11.546 59.4998 11.3435 58.5314 11.1156C57.2316 10.8119 56.1356 10.4579 55.2438 10.0528C54.3517 9.64782 53.6635 9.09121 53.154 8.38241C52.6188 7.67382 52.364 6.81357 52.364 5.75074C52.364 4.76358 52.6443 3.87781 53.1797 3.09323C53.7402 2.33405 54.5303 1.72653 55.575 1.32181C56.5943 0.891575 57.8176 0.688997 59.2194 0.688997C60.3407 0.688997 61.3091 0.815582 62.1247 1.09394C62.9402 1.37229 63.6283 1.75183 64.1635 2.20746C64.6987 2.66299 65.081 3.14393 65.3357 3.64994C65.5908 4.13087 65.718 4.6371 65.718 5.11793C65.718 5.54816 65.5653 5.95288 65.2593 6.28204C64.9281 6.63628 64.5458 6.81357 64.0873 6.81357C63.6538 6.81357 63.3481 6.71228 63.1188 6.50991C62.8894 6.28204 62.6601 5.95278 62.4051 5.47195C62.0738 4.78898 61.6661 4.25735 61.2072 3.87781C60.7485 3.47287 60.0094 3.29581 58.9646 3.29581C58.0216 3.29581 57.2316 3.49796 56.6711 3.92841C56.0848 4.33334 55.779 4.83957 55.779 5.42158C55.779 5.77582 55.8808 6.10487 56.0848 6.35804C56.2886 6.61099 56.5435 6.83897 56.9001 7.04133C57.2572 7.21861 57.6139 7.37028 57.9707 7.49686C58.3274 7.59815 58.9137 7.75014 59.7292 7.95239C60.7485 8.20567 61.6915 8.45862 62.5325 8.73698C63.3481 9.04063 64.0618 9.39487 64.6479 9.79981C65.234 10.2047 65.6927 10.7363 66.0239 11.3692C66.3554 12.0018 66.5082 12.761 66.5082 13.6721V13.6719ZM78.8938 13.3936H72.2424C72.2424 14.1527 72.4207 14.836 72.7009 15.418C73.0069 16 73.4144 16.4556 73.9242 16.7341C74.4085 17.038 74.9692 17.1897 75.5807 17.1897C75.9887 17.1897 76.3452 17.139 76.7022 17.038C77.0335 16.9618 77.3647 16.8101 77.6707 16.6076C77.9765 16.4052 78.2822 16.1773 78.537 15.9497C78.8173 15.7218 79.1485 15.4182 79.5817 15.0132C79.7603 14.8615 79.9897 14.7853 80.3208 14.7853C80.6778 14.7853 80.958 14.8868 81.162 15.0641C81.3914 15.2663 81.4932 15.5194 81.4932 15.8738C81.4932 16.1774 81.3657 16.532 81.1365 16.9366C80.8818 17.3418 80.5247 17.7465 80.0405 18.1011C79.5562 18.4804 78.9446 18.8096 78.2056 19.0373C77.4666 19.2906 76.6256 19.417 75.6825 19.417C73.4909 19.417 71.8089 18.7843 70.5856 17.5695C69.3878 16.3294 68.7764 14.6591 68.7764 12.5331C68.7764 11.5461 68.9291 10.6097 69.2349 9.74922C69.5154 8.91426 69.9484 8.18037 70.5347 7.57285C71.0955 6.96555 71.8089 6.48462 72.6497 6.15546C73.4909 5.82652 74.4082 5.67453 75.4276 5.67453C76.7531 5.67453 77.8996 5.95288 78.8426 6.50991C79.7856 7.06652 80.4992 7.77511 80.9835 8.6612C81.4422 9.54675 81.6972 10.4579 81.6972 11.3691C81.6972 12.204 81.4422 12.7609 80.958 13.0139C80.4737 13.2669 79.7857 13.3938 78.8937 13.3938L78.8938 13.3936ZM72.2424 11.4699H78.4096C78.3331 10.3058 78.0021 9.44524 77.4668 8.88842C76.9318 8.30642 76.218 8.02817 75.326 8.02817C74.4597 8.02817 73.7715 8.30653 73.2365 8.88842C72.701 9.47064 72.3696 10.3311 72.2424 11.4699ZM87.9156 14.5577V17.3666C87.9156 18.0501 87.7625 18.5564 87.4313 18.9104C87.1 19.2396 86.6923 19.4166 86.208 19.4166C85.7237 19.4166 85.3159 19.2396 85.0102 18.8851C84.6789 18.5564 84.5259 18.0501 84.5259 17.3666V7.97747C84.5259 6.45901 85.0864 5.69961 86.1824 5.69961C86.7429 5.69961 87.1509 5.87689 87.4057 6.23135C87.6349 6.58537 87.7877 7.11689 87.8133 7.80019C88.2212 7.11689 88.629 6.58537 89.0622 6.23135C89.4953 5.87678 90.0563 5.69961 90.7695 5.69961C91.483 5.69961 92.1713 5.87689 92.834 6.23135C93.5221 6.58537 93.8533 7.06631 93.8533 7.64831C93.8533 8.05347 93.7003 8.3822 93.4201 8.66098C93.1398 8.93934 92.834 9.06571 92.5026 9.06571C92.3753 9.06571 92.0695 8.98971 91.5853 8.83783C91.1265 8.68617 90.6932 8.61018 90.3365 8.61018C89.8267 8.61018 89.419 8.73676 89.1132 8.98982C88.8074 9.26839 88.5522 9.64771 88.3742 10.1543C88.1957 10.6603 88.0937 11.2676 88.0171 11.9764C87.9406 12.685 87.9154 13.5454 87.9154 14.5579L87.9156 14.5577Z" fill="#FFCC29"/>
<path id="Vector_2" d="M97.7879 7.80018L100.54 15.4686L103.497 7.47123C103.726 6.81334 103.955 6.35771 104.185 6.10454C104.414 5.82618 104.746 5.6996 105.204 5.6996C105.637 5.6996 105.994 5.85159 106.3 6.12984C106.606 6.40819 106.759 6.76264 106.759 7.14229C106.759 7.26887 106.734 7.44616 106.682 7.6483C106.631 7.85088 106.555 8.02816 106.504 8.20544C106.427 8.38219 106.351 8.58477 106.249 8.78745L102.987 16.8355C102.911 17.0632 102.783 17.3668 102.63 17.7211C102.503 18.0756 102.324 18.3539 102.146 18.607C101.968 18.8602 101.764 19.0625 101.483 19.2143C101.229 19.3412 100.923 19.4168 100.54 19.4168C100.056 19.4168 99.674 19.3158 99.3935 19.0879C99.1132 18.8602 98.884 18.6324 98.7565 18.3793C98.629 18.1009 98.3998 17.5947 98.0682 16.8355L94.8317 8.88852C94.7554 8.68616 94.6789 8.4838 94.6024 8.28122C94.5259 8.10394 94.4497 7.90158 94.3986 7.69922C94.3474 7.47134 94.3221 7.29428 94.3221 7.16748C94.3221 6.91453 94.3987 6.68676 94.5259 6.4591C94.6789 6.23145 94.8829 6.05416 95.112 5.90218C95.3672 5.77559 95.6474 5.6996 95.9277 5.6996C96.4882 5.6996 96.8707 5.85159 97.0997 6.18053C97.3037 6.5097 97.5332 7.041 97.788 7.80029L97.7879 7.80018ZM112.595 7.6229V17.3666C112.595 18.0501 112.442 18.5564 112.11 18.8851C111.779 19.2397 111.371 19.4166 110.887 19.4166C110.377 19.4166 109.995 19.2396 109.664 18.8851C109.358 18.5311 109.205 18.0248 109.205 17.3666V7.7244C109.205 7.04089 109.358 6.53488 109.664 6.20594C109.995 5.87677 110.377 5.69949 110.887 5.69949C111.371 5.69949 111.779 5.87677 112.11 6.20594C112.442 6.53488 112.595 7.0156 112.595 7.6229ZM110.913 4.13044C110.454 4.13044 110.046 3.97845 109.715 3.7002C109.384 3.42184 109.205 2.99161 109.205 2.48538C109.205 2.00445 109.383 1.59983 109.715 1.29586C110.072 0.992207 110.454 0.840546 110.913 0.840546C111.371 0.840546 111.754 0.966915 112.085 1.24527C112.417 1.54892 112.595 1.95408 112.595 2.48538C112.595 2.99161 112.442 3.39655 112.111 3.7002C111.779 3.97855 111.371 4.13044 110.913 4.13044ZM128.294 15.2406C128.294 15.6711 128.166 16.1014 127.911 16.5823C127.656 17.063 127.274 17.5185 126.764 17.9487C126.254 18.379 125.592 18.733 124.802 18.9865C124.012 19.2648 123.12 19.3912 122.126 19.3912C120.036 19.3912 118.405 18.7839 117.233 17.5691C116.035 16.3543 115.449 14.7345 115.449 12.6845C115.449 11.2924 115.73 10.0776 116.265 9.01478C116.8 7.95195 117.59 7.11678 118.609 6.53477C119.629 5.95234 120.852 5.67398 122.254 5.67398C123.146 5.67398 123.961 5.80057 124.675 6.05384C125.414 6.3068 126.051 6.63585 126.56 7.04079C127.07 7.44594 127.453 7.87596 127.707 8.3316C127.988 8.78713 128.115 9.21747 128.115 9.62209C128.115 10.0272 127.962 10.356 127.682 10.6598C127.376 10.9384 126.994 11.0648 126.56 11.0648C126.28 11.0648 126.051 10.9888 125.872 10.8622C125.668 10.7105 125.465 10.4829 125.235 10.1538C124.828 9.52101 124.394 9.06537 123.936 8.73643C123.477 8.43278 122.916 8.2809 122.203 8.2809C121.209 8.2809 120.393 8.66076 119.782 9.44502C119.17 10.2296 118.864 11.2924 118.864 12.634C118.864 13.2664 118.941 13.8489 119.093 14.3802C119.272 14.9117 119.476 15.3673 119.782 15.7467C120.088 16.1265 120.444 16.4049 120.877 16.582C121.285 16.7844 121.769 16.8857 122.254 16.8857C122.942 16.8857 123.528 16.7337 124.012 16.4048C124.496 16.1011 124.929 15.6202 125.312 14.9874C125.516 14.608 125.72 14.3044 125.974 14.1018C126.204 13.874 126.51 13.7727 126.866 13.7727C127.274 13.7727 127.606 13.9246 127.886 14.2536C128.166 14.5575 128.294 14.8864 128.294 15.2405L128.294 15.2406ZM140.73 13.3934H134.078C134.078 14.1526 134.257 14.8359 134.537 15.4179C134.843 15.9999 135.251 16.4555 135.76 16.734C136.245 17.0379 136.805 17.1896 137.417 17.1896C137.825 17.1896 138.181 17.1389 138.538 17.0379C138.869 16.9617 139.201 16.81 139.507 16.6074C139.812 16.4051 140.118 16.1772 140.373 15.9496C140.653 15.7217 140.985 15.418 141.418 15.0131C141.596 14.8614 141.826 14.7852 142.157 14.7852C142.514 14.7852 142.794 14.8867 142.998 15.064C143.227 15.2662 143.329 15.5193 143.329 15.8737C143.329 16.1773 143.202 16.5319 142.972 16.9365C142.718 17.3417 142.361 17.7464 141.877 18.1009C141.392 18.4803 140.781 18.8095 140.042 19.0372C139.303 19.2905 138.462 19.4168 137.519 19.4168C135.327 19.4168 133.645 18.7842 132.422 17.5694C131.224 16.3293 130.612 14.659 130.612 12.533C130.612 11.546 130.765 10.6096 131.071 9.7491C131.351 8.91414 131.785 8.18026 132.371 7.57274C132.931 6.96544 133.645 6.4845 134.486 6.15534C135.327 5.8264 136.244 5.67441 137.264 5.67441C138.589 5.67441 139.736 5.95277 140.679 6.5098C141.622 7.0664 142.335 7.77499 142.819 8.66108C143.278 9.54663 143.533 10.4578 143.533 11.369C143.533 12.2039 143.278 12.7607 142.794 13.0138C142.31 13.2668 141.622 13.3937 140.73 13.3937L140.73 13.3934ZM134.078 11.4698H140.246C140.169 10.3057 139.838 9.44512 139.303 8.8883C138.768 8.3063 138.054 8.02805 137.162 8.02805C136.296 8.02805 135.607 8.30641 135.072 8.8883C134.537 9.47053 134.206 10.331 134.078 11.4698Z" fill="#FFCC29"/>
</g>
</svg>
