<svg width="308" height="97" viewBox="0 0 308 97" fill="none" xmlns="http://www.w3.org/2000/svg">
<g clip-path="url(#clip0_3_19)">
<path d="M98.6601 90.3936C98.6601 90.9756 98.5326 91.5831 98.2268 92.266C97.9463 92.9243 97.5131 93.5824 96.8761 94.2401C96.2643 94.8729 95.4998 95.4045 94.5315 95.8094C93.5885 96.2142 92.4672 96.4167 91.1929 96.4167C90.2501 96.4167 89.3579 96.341 88.5681 96.1384C87.7781 95.9611 87.0643 95.6828 86.4271 95.3032C85.7903 94.9236 85.2038 94.4173 84.6433 93.7847C84.1846 93.2278 83.7516 92.5952 83.42 91.8867C83.0888 91.1779 82.8339 90.4188 82.6555 89.6344C82.477 88.8243 82.4008 87.9637 82.4008 87.0779C82.4008 85.6102 82.6046 84.3194 83.038 83.1552C83.4713 82.0164 84.0828 81.0295 84.8729 80.1941C85.6882 79.3844 86.6057 78.7516 87.676 78.3216C88.7465 77.8914 89.8933 77.6888 91.091 77.6888C92.5691 77.6888 93.8946 77.9671 95.0411 78.5747C96.1881 79.1567 97.0802 79.8655 97.6917 80.7257C98.3032 81.5862 98.6092 82.3961 98.6092 83.1806C98.6092 83.5856 98.4562 83.9654 98.176 84.2944C97.8702 84.598 97.5132 84.7751 97.0802 84.7751C96.6215 84.7751 96.2644 84.6485 96.0352 84.4209C95.7804 84.2185 95.5254 83.8136 95.2451 83.282C94.7608 82.3709 94.1749 81.7127 93.5375 81.2573C92.8747 80.8271 92.085 80.5995 91.1165 80.5995C89.6129 80.5995 88.3897 81.1815 87.4977 82.3203C86.6056 83.4593 86.1469 85.0789 86.1469 87.2049C86.1469 88.5966 86.3509 89.7864 86.7587 90.7226C87.141 91.6591 87.7017 92.3426 88.4407 92.8235C89.1799 93.279 90.0207 93.5065 91.0147 93.5065C92.0595 93.5065 92.9516 93.2535 93.6906 92.7219C94.4296 92.1906 94.9904 91.4314 95.3469 90.419C95.5254 89.9382 95.7039 89.5585 95.9334 89.2548C96.1626 88.9512 96.5449 88.7993 97.0545 88.7993C97.5132 88.7993 97.8702 88.9513 98.2015 89.2548C98.5072 89.5585 98.6602 89.9384 98.6602 90.3939L98.6601 90.3936ZM110.332 94.5186C109.517 95.1512 108.701 95.6322 107.936 95.9358C107.172 96.265 106.306 96.4167 105.363 96.4167C104.496 96.4167 103.731 96.2397 103.069 95.9105C102.406 95.5565 101.897 95.1008 101.54 94.5187C101.183 93.9365 101.004 93.3039 101.004 92.6207C101.004 91.6843 101.31 90.8997 101.897 90.2418C102.483 89.6092 103.298 89.1536 104.318 88.951C104.547 88.9003 105.082 88.7737 105.923 88.5964C106.79 88.4447 107.503 88.2675 108.115 88.1411C108.727 87.9891 109.389 87.8119 110.103 87.6096C110.052 86.724 109.873 86.0658 109.568 85.6611C109.236 85.2306 108.573 85.0283 107.58 85.0283C106.713 85.0283 106.076 85.1546 105.643 85.3823C105.184 85.6102 104.827 85.9898 104.521 86.4708C104.19 86.9263 103.986 87.2553 103.859 87.4072C103.731 87.5589 103.451 87.6351 103.018 87.6351C102.636 87.6351 102.304 87.5082 102.024 87.2552C101.769 87.0276 101.616 86.7239 101.616 86.3441C101.616 85.7368 101.82 85.1545 102.253 84.5979C102.686 84.041 103.324 83.5855 104.241 83.2062C105.133 82.8516 106.255 82.6744 107.58 82.6744C109.083 82.6744 110.256 82.8517 111.097 83.2062C111.963 83.5602 112.549 84.0917 112.906 84.851C113.263 85.6102 113.441 86.6224 113.441 87.8881C113.441 88.6727 113.441 89.3304 113.441 89.8875C113.441 90.4441 113.416 91.0514 113.416 91.735C113.416 92.3678 113.518 93.0255 113.747 93.709C113.951 94.3923 114.053 94.8478 114.053 95.0504C114.053 95.3793 113.9 95.7083 113.569 95.9868C113.238 96.2652 112.855 96.4168 112.447 96.4168C112.09 96.4168 111.759 96.2652 111.402 95.9359C111.071 95.607 110.714 95.126 110.332 94.5187L110.332 94.5186ZM110.103 89.6344C109.618 89.8111 108.879 90.0137 107.936 90.2164C106.994 90.4187 106.331 90.5704 105.974 90.6466C105.592 90.7477 105.261 90.925 104.929 91.2032C104.598 91.4816 104.42 91.8614 104.42 92.3677C104.42 92.8737 104.624 93.3039 105.006 93.6836C105.388 94.0381 105.898 94.2149 106.535 94.2149C107.197 94.2149 107.835 94.0632 108.395 93.7848C108.956 93.481 109.389 93.1016 109.644 92.646C109.95 92.1398 110.103 91.2793 110.103 90.1151V89.6344ZM120.246 91.5578V94.3667C120.246 95.0503 120.093 95.5565 119.761 95.9105C119.43 96.2397 119.022 96.4167 118.538 96.4167C118.054 96.4167 117.646 96.2397 117.34 95.8852C117.009 95.5565 116.856 95.0503 116.856 94.3667V84.9776C116.856 83.4591 117.417 82.6997 118.512 82.6997C119.073 82.6997 119.481 82.877 119.736 83.2315C119.965 83.5855 120.118 84.117 120.144 84.8003C120.551 84.117 120.959 83.5855 121.392 83.2315C121.826 82.8769 122.386 82.6997 123.1 82.6997C123.813 82.6997 124.501 82.877 125.164 83.2315C125.852 83.5855 126.184 84.0664 126.184 84.6484C126.184 85.0536 126.031 85.3823 125.75 85.6611C125.47 85.9394 125.164 86.0658 124.833 86.0658C124.705 86.0658 124.4 85.9898 123.915 85.8379C123.457 85.6863 123.023 85.6103 122.667 85.6103C122.157 85.6103 121.749 85.7369 121.443 85.9899C121.138 86.2685 120.883 86.6478 120.704 87.1544C120.526 87.6604 120.424 88.2677 120.348 88.9765C120.271 89.6851 120.246 90.5455 120.246 91.558V91.5578ZM148.508 90.6719C148.508 91.7601 148.228 92.747 147.667 93.6329C147.081 94.4933 146.265 95.1766 145.17 95.6829C144.074 96.1638 142.774 96.4167 141.271 96.4167C139.461 96.4167 137.983 96.0878 136.811 95.4045C135.995 94.9236 135.307 94.2657 134.797 93.4556C134.288 92.6459 134.007 91.8614 134.007 91.1021C134.007 90.6466 134.186 90.2668 134.492 89.9631C134.797 89.6344 135.18 89.4822 135.664 89.4822C136.072 89.4822 136.377 89.6091 136.658 89.862C136.938 90.0899 137.168 90.4693 137.346 90.9503C137.575 91.5323 137.83 92.0131 138.11 92.3927C138.365 92.7724 138.747 93.1015 139.232 93.3545C139.741 93.6075 140.379 93.7341 141.169 93.7341C142.264 93.7341 143.157 93.4809 143.845 92.975C144.533 92.4687 144.864 91.8361 144.864 91.077C144.864 90.4694 144.686 89.9885 144.303 89.6092C143.946 89.2293 143.462 88.951 142.876 88.7484C142.29 88.546 141.5 88.3435 140.531 88.1156C139.232 87.8119 138.136 87.4579 137.244 87.0528C136.352 86.6478 135.663 86.0912 135.154 85.3824C134.619 84.6738 134.364 83.8136 134.364 82.7507C134.364 81.7636 134.644 80.8778 135.18 80.0932C135.74 79.334 136.53 78.7265 137.575 78.3218C138.594 77.8916 139.818 77.689 141.219 77.689C142.341 77.689 143.309 77.8156 144.125 78.0939C144.94 78.3723 145.628 78.7518 146.163 79.2075C146.699 79.663 147.081 80.1439 147.336 80.6499C147.591 81.1309 147.718 81.6371 147.718 82.1179C147.718 82.5482 147.565 82.9529 147.259 83.282C146.928 83.6363 146.546 83.8136 146.087 83.8136C145.654 83.8136 145.348 83.7123 145.119 83.5099C144.889 83.282 144.66 82.9528 144.405 82.472C144.074 81.789 143.666 81.2573 143.207 80.8778C142.749 80.4729 142.009 80.2958 140.965 80.2958C140.022 80.2958 139.232 80.498 138.671 80.9284C138.085 81.3333 137.779 81.8396 137.779 82.4216C137.779 82.7758 137.881 83.1049 138.085 83.358C138.289 83.611 138.544 83.839 138.9 84.0413C139.257 84.2186 139.614 84.3703 139.971 84.4969C140.327 84.5982 140.914 84.7501 141.729 84.9524C142.749 85.2057 143.692 85.4586 144.533 85.737C145.348 86.0406 146.062 86.3949 146.648 86.7998C147.234 87.2047 147.693 87.7363 148.024 88.3692C148.355 89.0018 148.508 89.761 148.508 90.6721V90.6719ZM160.894 90.3936H154.242C154.242 91.1527 154.421 91.836 154.701 92.418C155.007 93 155.414 93.4556 155.924 93.7341C156.408 94.038 156.969 94.1897 157.581 94.1897C157.989 94.1897 158.345 94.139 158.702 94.038C159.033 93.9618 159.365 93.8101 159.671 93.6076C159.976 93.4052 160.282 93.1773 160.537 92.9497C160.817 92.7218 161.148 92.4182 161.582 92.0132C161.76 91.8615 161.99 91.7853 162.321 91.7853C162.678 91.7853 162.958 91.8868 163.162 92.0641C163.391 92.2663 163.493 92.5194 163.493 92.8738C163.493 93.1774 163.366 93.532 163.136 93.9366C162.882 94.3418 162.525 94.7465 162.04 95.1011C161.556 95.4804 160.945 95.8096 160.206 96.0373C159.467 96.2906 158.626 96.417 157.683 96.417C155.491 96.417 153.809 95.7843 152.586 94.5695C151.388 93.3294 150.776 91.6591 150.776 89.5331C150.776 88.5461 150.929 87.6097 151.235 86.7492C151.515 85.9143 151.948 85.1804 152.535 84.5729C153.096 83.9656 153.809 83.4846 154.65 83.1555C155.491 82.8265 156.408 82.6745 157.428 82.6745C158.753 82.6745 159.9 82.9529 160.843 83.5099C161.786 84.0665 162.499 84.7751 162.983 85.6612C163.442 86.5467 163.697 87.4579 163.697 88.3691C163.697 89.204 163.442 89.7609 162.958 90.0139C162.474 90.2669 161.786 90.3938 160.894 90.3938L160.894 90.3936ZM154.242 88.4699H160.41C160.333 87.3058 160.002 86.4452 159.467 85.8884C158.932 85.3064 158.218 85.0282 157.326 85.0282C156.46 85.0282 155.771 85.3065 155.236 85.8884C154.701 86.4706 154.37 87.3311 154.242 88.4699ZM169.916 91.5577V94.3666C169.916 95.0501 169.763 95.5564 169.431 95.9104C169.1 96.2396 168.692 96.4166 168.208 96.4166C167.724 96.4166 167.316 96.2396 167.01 95.8851C166.679 95.5564 166.526 95.0501 166.526 94.3666V84.9775C166.526 83.459 167.086 82.6996 168.182 82.6996C168.743 82.6996 169.151 82.8769 169.406 83.2313C169.635 83.5854 169.788 84.1169 169.813 84.8002C170.221 84.1169 170.629 83.5854 171.062 83.2313C171.495 82.8768 172.056 82.6996 172.77 82.6996C173.483 82.6996 174.171 82.8769 174.834 83.2313C175.522 83.5854 175.853 84.0663 175.853 84.6483C175.853 85.0535 175.7 85.3822 175.42 85.661C175.14 85.9393 174.834 86.0657 174.503 86.0657C174.375 86.0657 174.07 85.9897 173.585 85.8378C173.127 85.6862 172.693 85.6102 172.336 85.6102C171.827 85.6102 171.419 85.7368 171.113 85.9898C170.807 86.2684 170.552 86.6477 170.374 87.1543C170.196 87.6603 170.094 88.2676 170.017 88.9764C169.941 89.685 169.915 90.5454 169.915 91.5579L169.916 91.5577Z" fill="#FFCC29"/>
<path d="M179.788 84.8002L182.54 92.4686L185.497 84.4712C185.726 83.8133 185.955 83.3577 186.185 83.1045C186.414 82.8262 186.746 82.6996 187.204 82.6996C187.637 82.6996 187.994 82.8516 188.3 83.1298C188.606 83.4082 188.759 83.7626 188.759 84.1423C188.759 84.2689 188.734 84.4462 188.682 84.6483C188.631 84.8509 188.555 85.0282 188.504 85.2054C188.427 85.3822 188.351 85.5848 188.249 85.7875L184.987 93.8355C184.911 94.0632 184.783 94.3668 184.63 94.7211C184.503 95.0756 184.324 95.3539 184.146 95.607C183.968 95.8602 183.764 96.0625 183.483 96.2143C183.229 96.3412 182.923 96.4168 182.54 96.4168C182.056 96.4168 181.674 96.3158 181.394 96.0879C181.113 95.8602 180.884 95.6324 180.757 95.3793C180.629 95.1009 180.4 94.5947 180.068 93.8355L176.832 85.8885C176.755 85.6862 176.679 85.4838 176.602 85.2812C176.526 85.1039 176.45 84.9016 176.399 84.6992C176.347 84.4713 176.322 84.2943 176.322 84.1675C176.322 83.9145 176.399 83.6868 176.526 83.4591C176.679 83.2314 176.883 83.0542 177.112 82.9022C177.367 82.7756 177.647 82.6996 177.928 82.6996C178.488 82.6996 178.871 82.8516 179.1 83.1805C179.304 83.5097 179.533 84.041 179.788 84.8003L179.788 84.8002ZM194.595 84.6229V94.3666C194.595 95.0501 194.442 95.5564 194.11 95.8851C193.779 96.2397 193.371 96.4166 192.887 96.4166C192.377 96.4166 191.995 96.2396 191.664 95.8851C191.358 95.5311 191.205 95.0248 191.205 94.3666V84.7244C191.205 84.0409 191.358 83.5349 191.664 83.2059C191.995 82.8768 192.377 82.6995 192.887 82.6995C193.371 82.6995 193.779 82.8768 194.11 83.2059C194.442 83.5349 194.595 84.0156 194.595 84.6229ZM192.913 81.1304C192.454 81.1304 192.046 80.9784 191.715 80.7002C191.384 80.4218 191.205 79.9916 191.205 79.4854C191.205 79.0045 191.383 78.5998 191.715 78.2959C192.072 77.9922 192.454 77.8405 192.913 77.8405C193.371 77.8405 193.754 77.9669 194.085 78.2453C194.417 78.5489 194.595 78.9541 194.595 79.4854C194.595 79.9916 194.442 80.3965 194.111 80.7002C193.779 80.9786 193.371 81.1304 192.913 81.1304ZM210.294 92.2406C210.294 92.6711 210.166 93.1014 209.911 93.5823C209.656 94.063 209.274 94.5185 208.764 94.9487C208.254 95.379 207.592 95.733 206.802 95.9865C206.012 96.2648 205.12 96.3912 204.126 96.3912C202.036 96.3912 200.405 95.7839 199.233 94.5691C198.035 93.3543 197.449 91.7345 197.449 89.6845C197.449 88.2924 197.73 87.0776 198.265 86.0148C198.8 84.952 199.59 84.1168 200.609 83.5348C201.629 82.9523 202.852 82.674 204.254 82.674C205.146 82.674 205.961 82.8006 206.675 83.0538C207.414 83.3068 208.051 83.6358 208.56 84.0408C209.07 84.4459 209.453 84.876 209.707 85.3316C209.988 85.7871 210.115 86.2175 210.115 86.6221C210.115 87.0272 209.962 87.356 209.682 87.6598C209.376 87.9384 208.994 88.0648 208.56 88.0648C208.28 88.0648 208.051 87.9888 207.872 87.8622C207.668 87.7105 207.465 87.4829 207.235 87.1538C206.828 86.521 206.394 86.0654 205.936 85.7364C205.477 85.4328 204.916 85.2809 204.203 85.2809C203.209 85.2809 202.393 85.6608 201.782 86.445C201.17 87.2296 200.864 88.2924 200.864 89.634C200.864 90.2664 200.941 90.8489 201.093 91.3802C201.272 91.9117 201.476 92.3673 201.782 92.7467C202.088 93.1265 202.444 93.4049 202.877 93.582C203.285 93.7844 203.769 93.8857 204.254 93.8857C204.942 93.8857 205.528 93.7337 206.012 93.4048C206.496 93.1011 206.929 92.6202 207.312 91.9874C207.516 91.608 207.72 91.3044 207.974 91.1018C208.204 90.874 208.51 90.7727 208.866 90.7727C209.274 90.7727 209.606 90.9246 209.886 91.2536C210.166 91.5575 210.294 91.8864 210.294 92.2405L210.294 92.2406ZM222.73 90.3934H216.078C216.078 91.1526 216.257 91.8359 216.537 92.4179C216.843 92.9999 217.251 93.4555 217.76 93.734C218.245 94.0379 218.805 94.1896 219.417 94.1896C219.825 94.1896 220.181 94.1389 220.538 94.0379C220.869 93.9617 221.201 93.81 221.507 93.6074C221.812 93.4051 222.118 93.1772 222.373 92.9496C222.653 92.7217 222.985 92.418 223.418 92.0131C223.596 91.8614 223.826 91.7852 224.157 91.7852C224.514 91.7852 224.794 91.8867 224.998 92.064C225.227 92.2662 225.329 92.5193 225.329 92.8737C225.329 93.1773 225.202 93.5319 224.972 93.9365C224.718 94.3417 224.361 94.7464 223.877 95.1009C223.392 95.4803 222.781 95.8095 222.042 96.0372C221.303 96.2905 220.462 96.4168 219.519 96.4168C217.327 96.4168 215.645 95.7842 214.422 94.5694C213.224 93.3293 212.612 91.659 212.612 89.533C212.612 88.546 212.765 87.6096 213.071 86.7491C213.351 85.9141 213.785 85.1803 214.371 84.5727C214.931 83.9654 215.645 83.4845 216.486 83.1553C217.327 82.8264 218.244 82.6744 219.264 82.6744C220.589 82.6744 221.736 82.9528 222.679 83.5098C223.622 84.0664 224.335 84.775 224.819 85.6611C225.278 86.5466 225.533 87.4578 225.533 88.369C225.533 89.2039 225.278 89.7607 224.794 90.0138C224.31 90.2668 223.622 90.3937 222.73 90.3937L222.73 90.3934ZM216.078 88.4698H222.246C222.169 87.3057 221.838 86.4451 221.303 85.8883C220.768 85.3063 220.054 85.0281 219.162 85.0281C218.296 85.0281 217.607 85.3064 217.072 85.8883C216.537 86.4705 216.206 87.331 216.078 88.4698Z" fill="#FFCC29"/>
<path fill-rule="evenodd" clip-rule="evenodd" d="M0.635837 39.5584L0.433472 31.293C22.1778 19.0707 46.4375 14.6138 71.1363 15.0887C80.7371 15.2745 99.7015 16.0368 120.395 19.0417C150.101 23.355 201.526 21.7376 214.867 14.8822C182.27 30.635 152.785 27.4229 118.757 23.9525C100.833 22.1245 82.8512 20.289 65.1859 20.3944C43.0047 20.527 16.6414 23.2265 2.73114 32.6755L0.635837 39.5584Z" fill="#FFCC29"/>
<path fill-rule="evenodd" clip-rule="evenodd" d="M97.5871 11.9823C97.5871 11.9823 121.359 4.08446 150.716 1.02255C166.791 -0.653826 185.853 -0.258897 203.865 2.13511C223.135 4.69736 239.755 11.3191 258.875 13.2131C273.877 14.6995 289.992 14.2924 300.374 11.1367C300.374 11.1367 314.677 25.0023 302.758 43.7705C302.758 43.7705 307.696 22.9734 297.99 16.0406C297.99 16.0406 281.054 21.0135 258.767 18.8589C239.786 17.0252 222.613 9.45437 202.397 7.03959C185.051 4.96742 166.96 4.72965 150.691 5.66805C133.043 6.68642 116.264 9.29883 98.2681 13.6729C98.2681 13.6729 94.6925 14.5188 97.5871 11.9824V11.9823Z" fill="#FEFEFE"/>
<path d="M24.0622 52.5823H18.7926V62.4398C18.7926 63.8479 18.5152 64.8675 18.0001 65.5959C17.4454 66.3729 16.7719 66.713 15.94 66.713C15.0682 66.713 14.3551 66.3729 13.8398 65.6444C13.3247 64.9162 13.0475 63.8479 13.0475 62.4883V35.684C13.0475 34.13 13.3247 33.0134 13.9191 32.3334C14.5135 31.7022 15.4246 31.3621 16.6926 31.3621H24.0621C26.2414 31.3621 27.9056 31.5566 29.094 31.9935C30.2432 32.382 31.2733 33.0134 32.1052 33.9357C32.9376 34.8586 33.5712 35.9752 34.0072 37.2863C34.4828 38.6462 34.6807 40.1513 34.6807 41.8025C34.6807 45.3472 33.8091 48.0179 32.026 49.8629C30.2432 51.6596 27.5883 52.5823 24.062 52.5823H24.0622ZM22.6756 36.6551H18.7926V47.2895H22.6756C24.0228 47.2895 25.1717 47.095 26.0829 46.7553C26.9545 46.4153 27.6678 45.8327 28.1431 45.0555C28.6185 44.2786 28.8567 43.2105 28.8567 41.948C28.8567 40.3942 28.4999 39.1804 27.7472 38.209C26.9151 37.1894 25.2508 36.6553 22.6756 36.6553V36.6551Z" fill="#FEFEFE"/>
<path d="M50.9583 63.0709C49.6902 64.2848 48.4225 65.2077 47.2339 65.7903C46.045 66.4213 44.6983 66.7129 43.2321 66.7129C41.8849 66.7129 40.6963 66.3727 39.6664 65.7416C38.636 65.0616 37.8433 64.1878 37.2886 63.0709C36.7339 61.954 36.4567 60.74 36.4567 59.4289C36.4567 57.6324 36.9321 56.1269 37.8433 54.8648C38.7548 53.6507 40.0226 52.7766 41.6077 52.3881C41.964 52.2912 42.7961 52.0484 44.1037 51.7082C45.4508 51.417 46.5603 51.077 47.5112 50.8343C48.4619 50.5428 49.4921 50.2028 50.6016 49.8144C50.5225 48.1149 50.2451 46.8522 49.7697 46.0754C49.2546 45.25 48.2246 44.8616 46.6791 44.8616C45.3322 44.8616 44.3416 45.1043 43.6679 45.5412C42.9546 45.9784 42.3999 46.7068 41.9246 47.6292C41.4095 48.5033 41.0925 49.1345 40.8944 49.4259C40.6962 49.7174 40.2606 49.8628 39.5867 49.8628C38.9925 49.8628 38.4772 49.6201 38.0416 49.1344C37.6454 48.6977 37.4077 48.1147 37.4077 47.3867C37.4077 46.2211 37.7248 45.1042 38.3981 44.0361C39.0714 42.9674 40.0623 42.0936 41.4886 41.3652C42.8753 40.6856 44.6186 40.3456 46.6791 40.3456C49.0167 40.3456 50.8393 40.6855 52.147 41.3652C53.494 42.0452 54.4054 43.0647 54.96 44.5215C55.5147 45.9783 55.7921 47.9208 55.7921 50.3485C55.7921 51.8538 55.7921 53.1163 55.7921 54.1847C55.7921 55.2529 55.7526 56.4185 55.7526 57.7295C55.7526 58.9434 55.9109 60.2058 56.2675 61.5168C56.5847 62.8282 56.7431 63.702 56.7431 64.0905C56.7431 64.7219 56.5054 65.3531 55.9903 65.8872C55.4753 66.4211 54.8808 66.7128 54.247 66.7128C53.6922 66.7128 53.1772 66.4211 52.6224 65.7902C52.1073 65.159 51.5528 64.2362 50.9584 63.0708L50.9583 63.0709ZM50.6016 53.6992C49.8488 54.0389 48.6999 54.4276 47.2339 54.8161C45.7677 55.2045 44.7377 55.496 44.183 55.6416C43.5888 55.8356 43.0735 56.1759 42.5584 56.7098C42.0434 57.244 41.7658 57.9724 41.7658 58.9435C41.7658 59.9146 42.083 60.74 42.6772 61.4684C43.2717 62.1483 44.0639 62.4883 45.0546 62.4883C46.0849 62.4883 47.0753 62.1968 47.9469 61.6629C48.8187 61.0802 49.492 60.3518 49.8885 59.4777C50.3641 58.5066 50.6015 56.8555 50.6015 54.6219V53.6993L50.6016 53.6992ZM74.85 63.0709V62.2453C74.2161 63.2167 73.5425 64.042 72.8691 64.6734C72.1558 65.3531 71.4029 65.8387 70.571 66.1788C69.7389 66.5187 68.8277 66.6642 67.7579 66.6642C66.4898 66.6642 65.3409 66.3243 64.3111 65.6931C63.3204 65.0617 62.5277 64.1393 61.9732 63.0223C61.2993 61.6142 60.9828 59.672 60.9828 57.0983V44.2788C60.9828 42.9678 61.2205 41.9969 61.6958 41.3654C62.1714 40.7342 62.8053 40.3943 63.5975 40.3943C64.3902 40.3943 65.0238 40.7342 65.5391 41.3654C66.0145 41.9969 66.2524 42.9678 66.2524 44.2788V54.622C66.2524 56.127 66.371 57.3896 66.5693 58.4095C66.7673 59.4291 67.124 60.206 67.6788 60.789C68.1938 61.3716 68.9468 61.6631 69.8575 61.6631C70.7295 61.6631 71.6012 61.3232 72.3539 60.6918C73.1463 60.0606 73.7405 59.1864 74.0972 58.1666C74.3746 57.2443 74.5332 55.2047 74.5332 52.1456V44.2789C74.5332 42.9679 74.7709 41.997 75.2859 41.3655C75.7616 40.7343 76.3954 40.3944 77.1876 40.3944C77.9803 40.3944 78.6142 40.7343 79.0898 41.3655C79.5652 41.997 79.8028 42.9679 79.8028 44.2789V63.0225C79.8028 64.2365 79.5651 65.1594 79.1292 65.7906C78.6539 66.4216 78.0597 66.7132 77.3464 66.7132C76.6329 66.7132 76.0387 66.3731 75.5636 65.7419C75.088 65.1107 74.8501 64.1881 74.8501 63.0712L74.85 63.0709ZM85.0726 62.7794V34.7126C85.0726 33.4015 85.3103 32.4304 85.7856 31.7507C86.2613 31.1193 86.8951 30.7795 87.6876 30.7795C88.48 30.7795 89.1139 31.1193 89.629 31.7507C90.1046 32.4303 90.3423 33.4014 90.3423 34.7126V62.7794C90.3423 64.0905 90.1046 65.0616 89.5893 65.7416C89.1139 66.3727 88.48 66.7129 87.6876 66.7129C86.8951 66.7129 86.3007 66.3727 85.7856 65.693C85.3102 65.0131 85.0726 64.0419 85.0726 62.7794ZM115.581 53.5537C115.581 55.4959 115.343 57.244 114.868 58.8947C114.353 60.4973 113.64 61.9056 112.728 63.0709C111.777 64.2362 110.668 65.1591 109.4 65.7903C108.092 66.4213 106.666 66.7129 105.042 66.7129C103.417 66.7129 101.991 66.4212 100.723 65.7416C99.455 65.1104 98.3454 64.2362 97.3945 63.0222C96.4835 61.8571 95.7702 60.4973 95.2549 58.8947C94.7795 57.244 94.5421 55.4959 94.5421 53.5537C94.5421 51.6112 94.7796 49.8144 95.2945 48.1636C95.7701 46.5611 96.4834 45.1527 97.3945 43.9874C98.3057 42.8221 99.4152 41.948 100.723 41.3168C102.03 40.6856 103.457 40.3942 105.042 40.3942C106.627 40.3942 108.092 40.6857 109.4 41.3168C110.708 41.948 111.817 42.8706 112.728 44.0362C113.679 45.2015 114.392 46.6098 114.868 48.2122C115.343 49.8145 115.581 51.6112 115.581 53.5537ZM110.272 53.5537C110.272 50.9312 109.796 48.8918 108.845 47.3867C107.894 45.9299 106.627 45.2015 105.042 45.2015C104.011 45.2015 103.1 45.5412 102.308 46.1726C101.516 46.8522 100.921 47.8234 100.485 49.086C100.049 50.3486 99.8514 51.8538 99.8514 53.5537C99.8514 55.253 100.049 56.7098 100.485 57.9724C100.921 59.235 101.516 60.2059 102.268 60.8857C103.061 61.5657 103.972 61.9056 105.042 61.9056C106.627 61.9056 107.894 61.1772 108.845 59.6719C109.796 58.2151 110.272 56.1759 110.272 53.5537ZM144.109 63.0222V62.3912C143.395 63.3623 142.722 64.1877 142.009 64.8189C141.335 65.4017 140.582 65.8872 139.75 66.2272C138.958 66.5671 138.086 66.7129 137.135 66.7129C135.867 66.7129 134.679 66.3727 133.609 65.7416C132.539 65.0616 131.588 64.1392 130.835 62.9252C130.043 61.7113 129.449 60.2545 129.013 58.6034C128.616 57.0011 128.418 55.2044 128.418 53.3106C128.418 49.2316 129.211 46.0753 130.835 43.8418C132.46 41.5593 134.56 40.4428 137.214 40.4428C138.72 40.4428 140.027 40.7825 141.058 41.4137C142.088 42.0451 143.118 43.0162 144.109 44.3758V34.8098C144.109 33.4989 144.346 32.4791 144.742 31.7992C145.179 31.1193 145.812 30.7795 146.605 30.7795C147.397 30.7795 148.031 31.0707 148.467 31.7021C148.903 32.3333 149.101 33.2559 149.101 34.4697V63.022C149.101 64.2361 148.863 65.159 148.427 65.7902C147.952 66.4212 147.358 66.7128 146.605 66.7128C145.892 66.7128 145.297 66.3726 144.822 65.7414C144.346 65.1102 144.109 64.1877 144.109 63.022L144.109 63.0222ZM133.728 53.5049C133.728 55.253 133.966 56.7582 134.401 57.9724C134.837 59.235 135.431 60.1573 136.224 60.7887C137.017 61.3714 137.848 61.7113 138.76 61.7113C139.671 61.7113 140.543 61.4198 141.296 60.8372C142.048 60.2058 142.682 59.3318 143.118 58.1178C143.594 56.8554 143.831 55.3499 143.831 53.5049C143.831 51.8054 143.594 50.3 143.118 49.086C142.682 47.8234 142.048 46.901 141.296 46.2211C140.503 45.5899 139.631 45.2499 138.72 45.2499C137.769 45.2499 136.898 45.5899 136.145 46.2696C135.352 46.901 134.798 47.8719 134.362 49.1345C133.926 50.3971 133.728 51.8539 133.728 53.5049H133.728ZM169.149 55.156H158.808C158.808 56.6126 159.086 57.9236 159.521 59.0407C159.997 60.1573 160.631 61.0317 161.423 61.5656C162.176 62.1482 163.048 62.4397 163.999 62.4397C164.633 62.4397 165.187 62.3425 165.742 62.1482C166.257 62.0025 166.772 61.7113 167.247 61.3228C167.723 60.9342 168.198 60.4973 168.595 60.0602C169.031 59.6233 169.546 59.0406 170.219 58.2637C170.497 57.9722 170.853 57.8265 171.368 57.8265C171.923 57.8265 172.359 58.0207 172.676 58.3607C173.032 58.7492 173.191 59.2349 173.191 59.9145C173.191 60.4972 172.993 61.1771 172.636 61.9539C172.24 62.7309 171.685 63.5077 170.932 64.1877C170.18 64.9161 169.229 65.5473 168.08 65.9844C166.931 66.4698 165.623 66.7128 164.157 66.7128C160.75 66.7128 158.135 65.4987 156.233 63.168C154.371 60.7885 153.42 57.5838 153.42 53.5048C153.42 51.611 153.657 49.8143 154.133 48.1635C154.569 46.561 155.242 45.1526 156.153 43.9873C157.025 42.822 158.135 41.8993 159.442 41.2681C160.75 40.6367 162.176 40.3456 163.761 40.3456C165.821 40.3456 167.604 40.8794 169.07 41.9479C170.536 43.0162 171.646 44.3758 172.398 46.0753C173.111 47.7748 173.508 49.5231 173.508 51.2712C173.508 52.8737 173.111 53.9418 172.359 54.4275C171.606 54.9131 170.536 55.1559 169.149 55.1559L169.149 55.156ZM158.808 51.4655H168.397C168.278 49.2317 167.763 47.5808 166.931 46.5123C166.099 45.3957 164.989 44.8616 163.602 44.8616C162.256 44.8616 161.185 45.3958 160.353 46.5123C159.521 47.6292 159.006 49.2802 158.808 51.4655ZM206.632 37.1894H200.371V62.4398C200.371 63.8966 200.094 64.9647 199.579 65.6445C199.064 66.3729 198.351 66.7131 197.519 66.7131C196.687 66.7131 195.973 66.373 195.419 65.6445C194.904 64.9163 194.626 63.848 194.626 62.4398V37.1894H188.366C187.375 37.1894 186.662 36.8979 186.187 36.4124C185.711 35.8782 185.474 35.1498 185.474 34.276C185.474 33.4016 185.711 32.6732 186.187 32.1392C186.702 31.605 187.415 31.3621 188.366 31.3621H206.632C207.622 31.3621 208.375 31.605 208.85 32.188C209.326 32.7219 209.603 33.4016 209.603 34.276C209.603 35.1499 209.326 35.8783 208.85 36.4124C208.375 36.8979 207.622 37.1894 206.632 37.1894H206.632Z" fill="#FEFEFE"/>
<path d="M224.006 63.0709C222.738 64.2848 221.47 65.2077 220.281 65.7903C219.093 66.4213 217.745 66.7129 216.279 66.7129C214.932 66.7129 213.743 66.3728 212.713 65.7416C211.683 65.0616 210.891 64.1878 210.336 63.0709C209.781 61.9541 209.504 60.74 209.504 59.429C209.504 57.6325 209.98 56.1269 210.891 54.8648C211.802 53.6508 213.07 52.7766 214.655 52.3882C215.011 52.2912 215.843 52.0485 217.151 51.7082C218.498 51.417 219.608 51.077 220.558 50.8343C221.509 50.5428 222.54 50.2029 223.649 49.8144C223.57 48.1149 223.292 46.8523 222.817 46.0754C222.302 45.2501 221.271 44.8616 219.726 44.8616C218.379 44.8616 217.388 45.1043 216.715 45.5412C216.002 45.9785 215.447 46.7069 214.972 47.6292C214.457 48.5034 214.14 49.1345 213.941 49.4259C213.743 49.7174 213.308 49.8628 212.634 49.8628C212.039 49.8628 211.524 49.6201 211.089 49.1344C210.693 48.6978 210.455 48.1148 210.455 47.3867C210.455 46.2211 210.772 45.1042 211.445 44.0361C212.119 42.9675 213.109 42.0936 214.536 41.3652C215.923 40.6856 217.666 40.3456 219.726 40.3456C222.064 40.3456 223.886 40.6855 225.194 41.3652C226.541 42.0452 227.453 43.0648 228.007 44.5216C228.562 45.9783 228.839 47.9208 228.839 50.3485C228.839 51.8538 228.839 53.1163 228.839 54.1848C228.839 55.2529 228.799 56.4185 228.799 57.7295C228.799 58.9434 228.958 60.2058 229.315 61.5168C229.632 62.8282 229.79 63.702 229.79 64.0905C229.79 64.7219 229.552 65.3531 229.037 65.8872C228.522 66.4211 227.928 66.7128 227.294 66.7128C226.739 66.7128 226.224 66.4211 225.67 65.7902C225.154 65.159 224.6 64.2362 224.005 63.0708L224.006 63.0709ZM223.649 53.6992C222.896 54.0389 221.747 54.4276 220.281 54.8161C218.815 55.2045 217.785 55.496 217.23 55.6417C216.636 55.8356 216.121 56.1759 215.606 56.7098C215.091 57.244 214.813 57.9724 214.813 58.9435C214.813 59.9146 215.13 60.74 215.725 61.4684C216.319 62.1484 217.112 62.4883 218.102 62.4883C219.132 62.4883 220.123 62.1968 220.994 61.6629C221.866 61.0803 222.54 60.3519 222.936 59.4777C223.411 58.5066 223.649 56.8555 223.649 54.6219V53.6993L223.649 53.6992ZM251.186 58.2639C251.186 60.0604 250.83 61.5657 250.116 62.8283C249.403 64.0907 248.373 65.0618 246.986 65.7417C245.6 66.3729 243.896 66.713 241.915 66.713C240.013 66.713 238.388 66.3729 237.041 65.6444C235.694 64.9162 234.704 64.0421 234.07 62.9737C233.396 61.9056 233.079 60.8373 233.079 59.7691C233.079 59.0407 233.277 58.4581 233.713 57.9724C234.109 57.4382 234.624 57.1954 235.258 57.1954C235.813 57.1954 236.249 57.341 236.566 57.6811C236.843 58.0208 237.12 58.5065 237.398 59.0891C237.952 60.2544 238.586 61.1286 239.339 61.6628C240.092 62.2452 241.122 62.5367 242.43 62.5367C243.499 62.5367 244.331 62.2452 245.005 61.6628C245.718 61.0801 246.035 60.4487 246.035 59.6718C246.035 58.5549 245.679 57.7296 245.005 57.1953C244.292 56.6611 243.143 56.1757 241.519 55.69C239.696 55.1558 238.23 54.5729 237.081 53.9417C235.932 53.3591 235.02 52.5337 234.347 51.5626C233.673 50.5427 233.317 49.3288 233.317 47.8718C233.317 46.561 233.634 45.3472 234.267 44.1815C234.901 43.0162 235.813 42.0935 237.081 41.4137C238.309 40.7341 239.775 40.394 241.518 40.394C242.905 40.394 244.133 40.5398 245.203 40.9279C246.273 41.2681 247.184 41.7048 247.937 42.2877C248.65 42.9189 249.205 43.5503 249.601 44.2785C249.958 44.9585 250.156 45.6383 250.156 46.3667C250.156 47.0949 249.958 47.6778 249.561 48.1634C249.165 48.6489 248.571 48.8916 247.818 48.8916C247.263 48.8916 246.827 48.6976 246.432 48.309C246.075 47.9207 245.639 47.3866 245.124 46.6097C244.728 45.9782 244.252 45.444 243.737 45.1041C243.182 44.7156 242.43 44.5215 241.518 44.5215C240.567 44.5215 239.775 44.7642 239.141 45.2498C238.507 45.7837 238.19 46.3667 238.19 47.1437C238.19 47.8233 238.428 48.3575 238.903 48.7947C239.339 49.2316 239.973 49.6201 240.766 49.8628C241.558 50.1543 242.628 50.4943 244.014 50.9312C245.639 51.4168 246.986 51.9993 248.016 52.6792C249.046 53.3592 249.839 54.1848 250.393 55.1073C250.909 56.0297 251.186 57.0496 251.186 58.2637L251.186 58.2639ZM272.661 58.2639C272.661 60.0604 272.304 61.5657 271.591 62.8283C270.878 64.0907 269.848 65.0618 268.461 65.7417C267.074 66.3729 265.37 66.713 263.389 66.713C261.488 66.713 259.863 66.3729 258.516 65.6444C257.169 64.9162 256.178 64.0421 255.545 62.9737C254.871 61.9056 254.554 60.8373 254.554 59.7691C254.554 59.0407 254.752 58.4581 255.188 57.9724C255.584 57.4382 256.099 57.1954 256.733 57.1954C257.288 57.1954 257.724 57.341 258.041 57.6811C258.318 58.0208 258.595 58.5065 258.872 59.0891C259.427 60.2544 260.061 61.1286 260.814 61.6628C261.567 62.2452 262.597 62.5367 263.905 62.5367C264.974 62.5367 265.806 62.2452 266.48 61.6628C267.193 61.0801 267.51 60.4487 267.51 59.6718C267.51 58.5549 267.154 57.7296 266.48 57.1953C265.767 56.6611 264.618 56.1757 262.993 55.69C261.171 55.1558 259.704 54.5729 258.555 53.9417C257.407 53.3591 256.495 52.5337 255.822 51.5626C255.148 50.5427 254.791 49.3288 254.791 47.8718C254.791 46.561 255.109 45.3472 255.742 44.1815C256.376 43.0162 257.288 42.0935 258.555 41.4137C259.784 40.7341 261.25 40.394 262.993 40.394C264.38 40.394 265.608 40.5398 266.678 40.9279C267.748 41.2681 268.659 41.7048 269.412 42.2877C270.125 42.9189 270.68 43.5503 271.076 44.2785C271.433 44.9585 271.631 45.6383 271.631 46.3667C271.631 47.0949 271.433 47.6778 271.036 48.1634C270.64 48.6489 270.046 48.8916 269.293 48.8916C268.738 48.8916 268.302 48.6976 267.906 48.309C267.55 47.9207 267.114 47.3866 266.599 46.6097C266.203 45.9782 265.727 45.444 265.212 45.1041C264.657 44.7156 263.905 44.5215 262.993 44.5215C262.042 44.5215 261.25 44.7642 260.616 45.2498C259.982 45.7837 259.665 46.3667 259.665 47.1437C259.665 47.8233 259.903 48.3575 260.378 48.7947C260.814 49.2316 261.448 49.6201 262.24 49.8628C263.033 50.1543 264.103 50.4943 265.489 50.9312C267.114 51.4168 268.461 51.9993 269.491 52.6792C270.521 53.3592 271.314 54.1848 271.868 55.1073C272.384 56.0297 272.661 57.0496 272.661 58.2637V58.2639ZM296.909 53.5537C296.909 55.4959 296.672 57.244 296.196 58.8947C295.681 60.4973 294.968 61.9056 294.056 63.0709C293.106 64.2362 291.996 65.1591 290.728 65.7903C289.421 66.4213 287.994 66.7129 286.37 66.7129C284.745 66.7129 283.319 66.4212 282.051 65.7416C280.783 65.1104 279.674 64.2362 278.723 63.0222C277.812 61.8571 277.098 60.4973 276.583 58.8947C276.108 57.244 275.87 55.4959 275.87 53.5537C275.87 51.6112 276.108 49.8144 276.623 48.1636C277.098 46.5611 277.812 45.1528 278.723 43.9875C279.634 42.8221 280.744 41.948 282.051 41.3168C283.359 40.6856 284.785 40.3942 286.37 40.3942C287.955 40.3942 289.421 40.6857 290.728 41.3168C292.036 41.948 293.145 42.8706 294.056 44.0362C295.007 45.2015 295.721 46.6099 296.196 48.2122C296.672 49.8145 296.909 51.6112 296.909 53.5537H296.909ZM291.6 53.5537C291.6 50.9313 291.124 48.8918 290.173 47.3867C289.223 45.9299 287.955 45.2015 286.37 45.2015C285.339 45.2015 284.428 45.5412 283.636 46.1726C282.844 46.8523 282.249 47.8234 281.813 49.086C281.378 50.3486 281.179 51.8538 281.179 53.5537C281.179 55.253 281.378 56.7098 281.813 57.9724C282.249 59.235 282.844 60.2059 283.596 60.8858C284.389 61.5657 285.3 61.9056 286.37 61.9056C287.955 61.9056 289.222 61.1772 290.173 59.6719C291.124 58.2151 291.6 56.1759 291.6 53.5537H291.6Z" fill="#FEFEFE"/>
</g>
<defs>
<clipPath id="clip0_3_19">
<rect width="307.067" height="96.417" fill="white" transform="translate(0.433472)"/>
</clipPath>
</defs>
</svg>
