<svg width="151" height="136" viewBox="0 0 151 136" fill="none" xmlns="http://www.w3.org/2000/svg">
<g id="Logo Circular 1" clip-path="url(#clip0_3_31)">
<g id="Camada_x0020_1">
<path id="Vector" fill-rule="evenodd" clip-rule="evenodd" d="M0.625028 46.7274H10.363C10.363 46.7274 30.3242 -6.2229 91.9197 0.607296L92.9025 3.8288L89.5092 4.48239C96.1536 5.90109 105.233 8.70751 114.319 14.2739L115.302 17.4954L113.979 23.7278L123.81 33.7949L124.793 37.0164C124.793 37.0164 106.868 43.0041 101.784 26.3452L100.829 23.2198L100.799 23.1237C100.452 21.99 100.165 20.751 99.9487 19.3973C99.9487 19.3973 99.9734 19.3261 99.9982 19.196C99.547 18.6911 98.9072 18.1893 98.011 17.7401C94.2963 15.8753 67.5454 7.8216 45.6466 28.8945L89.2372 28.6715C89.2372 28.6715 98.2428 28.6715 107.737 45.9964L118.204 46.238L119.187 49.4595L119.431 54.3413L106.772 55.0723C106.772 55.0723 96.5461 38.7232 88.511 36.7686C80.4758 34.8203 34.4654 36.5239 34.4654 36.5239L33.4826 33.3024C33.4826 33.3024 34.2892 31.289 36.1651 28.4113C30.488 33.6122 22.8947 41.7713 13.2866 54.5829L3.54859 55.0723C3.54859 55.0723 1.78394 54.2484 1.2802 52.5943L0.297442 49.3728C0.0780203 48.6479 0.0965629 47.7651 0.618847 46.7243L0.625028 46.7274ZM81.0352 71.2883C81.0352 71.2883 70.4968 75.4143 41.357 71.7839C41.357 71.7839 26.3746 58.7461 12.5449 58.0863C-1.28486 57.4265 0.0316636 62.3765 0.0316636 62.3765V95.0499C0.0316636 95.0499 -0.295923 103.794 5.63154 104.454C11.559 105.114 27.0328 105.278 27.0328 105.278C27.0328 105.278 31.9714 105.61 33.9462 99.1728L34.4406 93.8914C34.4406 93.8914 48.7648 90.4252 58.8057 91.4164C58.8057 91.4164 67.3662 90.5925 85.1486 94.5512C85.1486 94.5512 85.1486 104.123 89.9233 104.615C94.695 105.111 111.983 105.111 111.983 105.111C111.983 105.111 116.921 106.266 119.721 98.1816L120.546 64.0213C119.681 55.9923 111.501 57.696 106.167 58.5385C96.4689 60.0688 90.8597 62.4229 81.0352 71.2821V71.2883ZM32.9294 70.3931L8.8765 62.7792C8.8765 62.7792 6.03021 61.3512 5.71189 64.0492C5.39358 66.7441 7.92465 73.0911 11.4076 73.884C13.574 74.3766 16.0463 74.7483 19.1646 74.804C23.4016 74.8784 28.2536 74.4106 32.4535 73.884C33.7175 73.723 34.5086 71.821 32.9263 70.3931H32.9294ZM87.1543 70.3931L111.207 62.7792C111.207 62.7792 114.053 61.3512 114.372 64.0492C114.687 66.7441 112.156 73.0911 108.676 73.884C106.51 74.3766 104.037 74.7483 100.919 74.804C96.6821 74.8784 91.827 74.4106 87.6271 73.884C86.3631 73.723 85.572 71.821 87.1543 70.3931ZM20.4471 52.7151C20.4471 52.7151 58.1505 45.6185 97.3311 52.7151L98.3139 55.9366C98.3139 55.9366 83.8259 62.045 79.0542 68.1473C79.0542 68.1473 62.7985 67.4658 43.9839 68.3146C43.9839 68.3146 30.1542 58.5757 21.4299 55.9366L20.4471 52.7151Z" fill="#373435"/>
<path id="Vector_2" fill-rule="evenodd" clip-rule="evenodd" d="M0.624792 46.7273H10.3628C10.3628 46.7273 30.3239 -6.22306 91.9195 0.607143L79.2611 3.04805C79.2611 3.04805 96.787 3.53437 114.319 14.2706L112.613 22.3244L123.81 33.7948C123.81 33.7948 103.36 40.625 99.9516 19.3972C99.9516 19.3972 100.925 16.4699 97.0311 14.5185C93.1371 12.567 63.9232 3.77908 41.5268 28.9161L89.2432 28.6714C89.2432 28.6714 98.2487 28.6714 107.743 45.9962L118.21 46.2378L118.454 51.1197L105.796 51.8507C105.796 51.8507 95.5724 35.5016 87.5342 33.547C79.499 31.5986 33.4885 33.3023 33.4885 33.3023C33.4885 33.3023 37.3825 23.5418 48.094 16.2221C48.094 16.2221 36.6532 18.9077 12.3098 51.3613L2.57177 51.8507C2.57177 51.8507 -1.08113 50.1408 0.624792 46.7242V46.7273ZM20.4469 52.7149C20.4469 52.7149 58.1503 45.6183 97.3309 52.7149C97.3309 52.7149 82.846 58.8234 78.0712 64.9257C78.0712 64.9257 61.8155 64.2442 43.0009 65.0929C43.0009 65.0929 29.1743 55.3541 20.4469 52.7149Z" fill="#FFCC29"/>
<path id="Vector_3" fill-rule="evenodd" clip-rule="evenodd" d="M105.066 5.97529C117.243 -3.78833 139.182 4.34596 135.235 23.3094L131.588 24.4277C131.588 24.4277 118.154 8.92111 105.066 5.97529Z" fill="#FFCC29"/>
<path id="Vector_4" fill-rule="evenodd" clip-rule="evenodd" d="M131.956 44.9709L139.098 39.6586C139.098 39.6586 143.938 48.6633 144.17 57.2095C144.265 60.7501 144.717 60.4032 144.85 57.8291C144.676 53.6504 143.879 47.576 141.635 41.6379V38.2708L144.17 35.7308C144.17 35.7308 149.899 45.6276 150.857 61.2612C150.86 61.2922 150.86 61.3232 150.864 61.3541C150.894 61.8435 150.916 62.3392 150.938 62.841C150.944 62.9711 150.947 63.1043 150.953 63.2344C150.965 63.6371 150.975 64.0459 150.984 64.4548C150.987 64.6717 150.99 64.8916 150.993 65.1084C150.996 65.3005 150.999 65.4863 150.999 65.6784V69.0455C150.999 69.8942 150.984 70.7584 150.953 71.632C150.125 94.9569 139.172 111.656 119.91 124.211C106.268 133.104 86.8667 139.364 60.7586 134.011V130.644L61.6548 129.12C56.6514 127.472 51.0114 124.573 45.3497 119.564V116.197L46.9845 110.81L37.4969 102.078V98.7112C37.4969 98.7112 53.6506 93.2129 60.4372 108.713C60.4372 108.713 61.4014 111.929 61.423 114.438V114.459C61.423 114.478 61.423 114.5 61.423 114.518V116.036C63.438 116.894 87.8432 126.754 110.141 111.486C127.175 99.8263 137.25 87.8417 137.754 67.7847C137.748 67.5803 137.742 67.3759 137.735 67.1714C137.476 59.8053 136.147 51.7423 131.953 48.3349V44.9678L131.956 44.9709ZM26.7885 106.669C25.1351 108.905 24.4119 111.275 24.4119 113.611V116.978C24.4119 128.591 42.3272 139.417 53.5455 129.216V125.849C36.6346 119.539 26.7885 106.669 26.7885 106.669Z" fill="#373435"/>
<path id="Vector_5" fill-rule="evenodd" clip-rule="evenodd" d="M131.956 44.9709L139.098 39.6585C139.098 39.6585 143.938 48.6633 144.17 57.2095C144.398 65.7558 146.701 51.6648 141.635 38.2739L144.17 35.7339C144.17 35.7339 151.652 48.6447 150.953 68.2741C150.125 91.599 139.172 108.298 119.91 120.853C106.268 129.746 86.8666 136.006 60.7586 130.654L62.1122 128.349C62.1122 128.349 73.5437 130.945 79.0262 127.355C79.0262 127.355 62.2605 131.174 45.3466 116.203L47.7818 108.184L37.4937 98.7142C37.4937 98.7142 53.6475 93.216 60.4341 108.716C60.4341 108.716 61.8804 113.53 61.2716 115.971C61.2716 115.971 86.8635 127.423 110.141 111.486C128.272 99.0735 138.526 86.2991 137.735 63.8043C137.476 56.4382 136.147 48.3752 131.953 44.9678L131.956 44.9709ZM26.7885 106.669C26.7885 106.669 36.6315 119.539 53.5455 125.849C40.0712 138.103 16.9269 120.013 26.7885 106.669Z" fill="#FEFEFE"/>
<path id="Vector_6" fill-rule="evenodd" clip-rule="evenodd" d="M81.035 67.2365C81.035 67.2365 70.4966 71.3625 41.3568 67.7321C41.3568 67.7321 26.3743 54.6943 12.5446 54.0345C-1.28511 53.3747 0.0314195 58.3247 0.0314195 58.3247V90.9981C0.0314195 90.9981 -0.296168 99.7457 5.62821 100.406C11.5557 101.065 27.0295 101.229 27.0295 101.229C27.0295 101.229 31.968 101.558 33.9428 95.1241L34.4373 89.8427C34.4373 89.8427 48.7615 86.3765 58.8023 87.3677C58.8023 87.3677 67.3629 86.5407 85.1422 90.5025C85.1422 90.5025 85.1422 100.074 89.9169 100.57C94.6916 101.065 111.976 101.065 111.976 101.065C111.976 101.065 116.915 102.221 119.715 94.136L120.54 59.9757C119.672 51.9467 111.494 53.6504 106.16 54.4929C96.4624 56.0232 90.8502 58.3742 81.0288 67.2365H81.035ZM32.9292 66.3413L8.87935 58.7274C8.87935 58.7274 6.03306 57.2994 5.71474 59.9974C5.39952 62.6923 7.93059 69.0362 11.4104 69.8322C13.5768 70.3248 16.0492 70.6965 19.1674 70.7522C23.4013 70.8297 28.2564 70.3588 32.4563 69.8322C33.7203 69.6743 34.5146 67.7692 32.9323 66.3413H32.9292ZM87.1571 66.3413L111.21 58.7274C111.21 58.7274 114.059 57.2994 114.375 59.9974C114.69 62.6923 112.159 69.0362 108.679 69.8322C106.513 70.3248 104.043 70.6965 100.922 70.7522C96.688 70.8297 91.8299 70.3588 87.6331 69.8322C86.3691 69.6743 85.5748 67.7692 87.1571 66.3413Z" fill="#FEFEFE"/>
</g>
</g>
<defs>
<clipPath id="clip0_3_31">
<rect width="151" height="136" fill="white"/>
</clipPath>
</defs>
</svg>
