<svg width="38" height="24" viewBox="0 0 38 24" fill="none" xmlns="http://www.w3.org/2000/svg">
<g id="olho (senha) 1" clip-path="url(#clip0_3_73)">
<g id="Camada_x0020_1">
<g id="_1377375562592">
<path id="Vector" fill-rule="evenodd" clip-rule="evenodd" d="M3.09491 11.5233C3.35181 11.0335 5.15896 9.20735 5.68498 8.78369L6.94365 7.67455C7.24165 7.42935 7.50248 7.2121 7.80001 6.97731C8.77108 6.21085 10.4502 5.17357 11.5691 4.60936L13.7328 3.66987C15.452 3.07557 15.8716 3.04035 17.5042 2.79122C19.3615 2.50784 21.2197 2.80697 22.9727 3.21507C26.3654 4.00487 29.0832 6.17178 31.6643 8.3485C32.1584 8.76524 32.7055 9.39236 33.1782 9.86924L33.9184 10.6836C34.1588 10.9721 34.427 11.2123 34.6335 11.5234C34.3411 11.964 33.5757 12.7765 33.215 13.1404C29.9823 16.4018 26.121 19.1154 21.5603 20.0423C21.0906 20.1378 20.718 20.1802 20.2242 20.2555C18.2198 20.5614 15.4716 20.1882 13.5689 19.4679C12.5267 19.0733 11.4078 18.5725 10.4596 17.9956C7.80855 16.3826 6.65516 15.3011 4.55034 13.1775L3.09497 11.5234L3.09491 11.5233ZM2.72889e-05 11.449C2.72889e-05 12.1322 0.163242 12.2618 0.644236 12.8063C1.5663 13.8502 2.22584 14.6984 3.26069 15.7424L5.18939 17.5138C5.935 18.099 6.34357 18.5217 7.26599 19.1359C7.67609 19.4089 7.92824 19.6163 8.36854 19.8821C8.80058 20.1428 9.06908 20.3328 9.53135 20.5675C9.96194 20.7862 10.2706 21.0086 10.7372 21.2095C11.2025 21.4098 11.5762 21.6057 12.0222 21.7717C16.4212 23.4086 20.7454 23.5394 25.1706 21.826L27.7763 20.6633C29.5351 19.7425 32.5365 17.6262 33.8425 16.301C34.3849 15.7505 34.8692 15.411 35.275 14.9212C35.8977 14.1696 37.7285 12.4173 37.7285 11.5977C37.7285 10.8507 37.494 10.7233 37.0881 10.2364L33.055 5.97887C32.1682 5.28692 31.632 4.68948 30.4625 3.91077C29.7252 3.41991 29.0261 2.90005 28.1971 2.47909C27.7665 2.26044 27.4579 2.03804 26.9912 1.83711C24.0868 0.586481 22.3783 0 18.7168 0C16.2722 0 13.0441 0.84627 11.1514 1.80889C9.63109 2.58206 9.0509 2.83354 7.5162 3.86587C6.75814 4.37581 6.05685 4.8809 5.35651 5.47851C4.20603 6.46018 3.50771 7.00905 2.41179 8.15776L0.65174 10.1736C0.318898 10.5858 0 10.9387 0 11.449L2.72889e-05 11.449Z" fill="#09562F"/>
<path id="Vector_2" fill-rule="evenodd" clip-rule="evenodd" d="M14.8113 11.5233C14.8113 9.2869 16.6475 7.4344 18.8642 7.4344C21.0766 7.4344 22.9171 9.29656 22.9171 11.5233C22.9171 13.7501 21.0766 15.6123 18.8642 15.6123C16.6475 15.6123 14.8113 13.7598 14.8113 11.5233ZM12.1585 11.1516C12.1585 13.2787 12.6324 14.8125 14.1182 16.3115C14.6639 16.8621 15.2277 17.2911 15.9645 17.6456C17.7747 18.5165 19.9537 18.5165 21.7639 17.6456C23.8734 16.6307 25.5698 14.2605 25.5698 11.7464C25.5698 9.52257 24.9102 8.06587 23.6355 6.78385C23.3186 6.4652 23.2005 6.3197 22.814 6.05143C22.4534 5.80117 22.2081 5.62031 21.8133 5.42547C17.1903 3.14336 12.1585 6.87061 12.1585 11.1516H12.1585Z" fill="#09562F"/>
</g>
</g>
</g>
<defs>
<clipPath id="clip0_3_73">
<rect width="37.7284" height="23.0562" fill="white"/>
</clipPath>
</defs>
</svg>
