<svg width="212" height="44" viewBox="0 0 212 44" fill="none" xmlns="http://www.w3.org/2000/svg">
<path id="Vector" fill-rule="evenodd" clip-rule="evenodd" d="M1.58711 11.9823C1.58711 11.9823 25.3593 4.08446 54.7158 1.02255C70.7907 -0.653826 89.8535 -0.258897 107.865 2.13511C127.135 4.69736 143.755 11.3191 162.875 13.2131C177.877 14.6995 193.992 14.2924 204.374 11.1367C204.374 11.1367 218.677 25.0023 206.758 43.7705C206.758 43.7705 211.696 22.9734 201.99 16.0406C201.99 16.0406 185.054 21.0135 162.767 18.8589C143.786 17.0252 126.613 9.45437 106.397 7.03959C89.0515 4.96742 70.9597 4.72965 54.6913 5.66805C37.0428 6.68642 20.2645 9.29883 2.26813 13.6729C2.26813 13.6729 -1.30746 14.5188 1.58711 11.9824V11.9823Z" fill="#FEFEFE"/>
</svg>
