<?xml version="1.0" encoding="UTF-8"?>
<!DOCTYPE svg PUBLIC "-//W3C//DTD SVG 1.1//EN" "http://www.w3.org/Graphics/SVG/1.1/DTD/svg11.dtd">
<!-- Creator: CorelDRAW 2021 (64 Bit) -->
<svg xmlns="http://www.w3.org/2000/svg" xml:space="preserve" width="12.4002mm" height="10.4432mm" version="1.1" style="shape-rendering:geometricPrecision; text-rendering:geometricPrecision; image-rendering:optimizeQuality; fill-rule:evenodd; clip-rule:evenodd"
viewBox="0 0 125.86 106"
 xmlns:xlink="http://www.w3.org/1999/xlink"
 xmlns:xodm="http://www.corel.com/coreldraw/odm/2003">
 <defs>
  <style type="text/css">
   <![CDATA[
    .fil0 {fill:#09562F}
   ]]>
  </style>
 </defs>
 <g id="Camada_x0020_1">
  <metadata id="CorelCorpID_0Corel-Layer"/>
  <g id="_2006838136304">
   <g id="_1377375587216">
    <path class="fil0" d="M76.21 51.67c-0.83,-0.44 -1.4,-0.79 -2.2,-1.25l-5.15 -2.23c-0.79,-0.23 -2.3,-0.38 -2.98,-0.7l0 13.52c4.99,1.16 11.55,3.1 14.16,7.47 1.89,3.17 1.82,4.75 1.82,8.26 0,7.82 -8.14,13.27 -16.22,13.27l0 5.16 -4.43 0c0,-6.6 0.43,-5.1 -2.28,-5.59 -9.23,-1.66 -12.01,-5.52 -15.18,-7.2 0.46,-0.69 4.38,-5.62 5.16,-6.14 1.42,0.38 3.91,3.75 10.54,5.69 2.44,0.71 1.99,0.97 1.99,-5.2 0,-2.79 0,-5.57 0,-8.36 -3.03,-0.71 -8.1,-2.43 -10.26,-4 -4.86,-3.54 -5.23,-5.78 -5.23,-11.73 0,-6.48 6.18,-11.51 12.74,-12.58 3.05,-0.49 2.74,0.66 2.74,-3.65l4.43 0c0,4.84 -0.69,3.18 3.79,4.08 1.66,0.33 2.65,0.6 4.04,1.12 1.28,0.48 2.29,0.98 3.56,1.6l3.36 1.8c-1,1.9 -3.41,4.72 -4.43,6.64l0 0zm-76.21 -14.26l0 56.79c0,3.4 2.53,7.19 4.52,8.75 2.82,2.2 5.35,3.05 10.23,3.05l96.36 0c4.88,0 7.41,-0.85 10.23,-3.05 1.99,-1.56 4.52,-5.35 4.52,-8.75l0 -57.03c0,-5.73 -5.94,-11.8 -12.54,-11.8l-100.54 0c-6.8,0 -12.78,5.61 -12.78,12.05l0 -0z"/>
    <path class="fil0" d="M25.32 17.75l81.37 0c-0.03,-1.47 -1.07,-4.65 -1.43,-5.95 -1.07,-3.89 -1.83,-7.14 -5.28,-9.72 -5.2,-3.88 -11.28,-1.39 -16.45,-0.12l-58.21 15.78z"/>
    <path class="fil0" d="M65.88 82.4c3.62,0 7.37,-2.19 7.37,-5.65 0,-2.48 -0.12,-3.77 -2.62,-5.24 -1.21,-0.71 -3.13,-1.75 -4.75,-1.88l0 12.78 0 0z"/>
    <path class="fil0" d="M54.33 53.39c0,1.98 0.9,3.5 2.46,4.42 1.39,0.82 2.9,1.56 4.66,1.97 0,-2.13 0,-4.26 0,-6.39 0,-4.78 1.23,-7.17 -2.86,-5.56 -2.33,0.91 -4.27,2.83 -4.27,5.56z"/>
   </g>
  </g>
 </g>
</svg>
