<?xml version="1.0" encoding="UTF-8"?>
<!DOCTYPE svg PUBLIC "-//W3C//DTD SVG 1.1//EN" "http://www.w3.org/Graphics/SVG/1.1/DTD/svg11.dtd">
<!-- Creator: CorelDRAW 2021 (64 Bit) -->
<svg xmlns="http://www.w3.org/2000/svg" xml:space="preserve" width="14.0702mm" height="12.5774mm" version="1.1" style="shape-rendering:geometricPrecision; text-rendering:geometricPrecision; image-rendering:optimizeQuality; fill-rule:evenodd; clip-rule:evenodd"
viewBox="0 0 1910.14 1707.48"
 xmlns:xlink="http://www.w3.org/1999/xlink"
 xmlns:xodm="http://www.corel.com/coreldraw/odm/2003">
 <defs>
  <style type="text/css">
   <![CDATA[
    .fil0 {fill:#09562F}
   ]]>
  </style>
 </defs>
 <g id="Camada_x0020_1">
  <metadata id="CorelCorpID_0Corel-Layer"/>
  <g id="_2006412255520">
   <path class="fil0" d="M1436.32 1514.69c0,-115.11 164.16,-115.11 164.16,0 0,102.99 -164.16,102.44 -164.16,0zm-623.02 78.35c-108.99,0 -120.17,-164.16 3.73,-164.16 99.65,0 102.13,164.16 -3.73,164.16zm563.34 -518.57l-156.69 0 0 -246.24 197.72 0 -29 220.96c-1.29,13.44 2.34,25.28 -12.03,25.28l0 0zm272.33 0l-149.22 0 25.45 -183.48c2.61,-21.63 6.53,-43.55 8.12,-62.76l179.08 0c-1.68,20.28 -8.91,40.92 -13.34,61.27l-29.17 127.52c-11.01,43.43 -0.57,27.08 -20.89,57.45l-0.01 0zm-1052.05 -246.24l197.73 0 33.57 246.24c-172.93,0 -163.33,15.9 -179.82,-51.49 -9.31,-38.09 -48.37,-170.51 -51.48,-194.74l0 0zm313.38 0l197.73 0 0 246.24 -164.16 0 -33.57 -246.24zm522.3 -115.65l-212.65 0 0 -246.22 246.22 0c-5.08,61.02 -28.54,185.7 -33.57,246.22zm-570.79 -249.96l246.22 0 0 249.96 -212.65 0 -33.57 -249.96 0 0zm880.44 249.96l-194 0 16.02 -122.02c4.6,-35.13 9.56,-89.84 17.55,-124.2l216.38 0c-5.42,11.3 -11.32,44.81 -14.96,59.65 -4.75,19.39 -10.22,42.91 -13.96,60.66 -5.34,25.39 -26.64,107.9 -27.04,125.92l0 0zm-1246.07 -249.96l249.97 0c8.1,34.78 19.3,140.31 25.9,186.75 2.59,18.27 7.67,44.99 7.67,63.21l-216.38 0c-1.67,-20.08 -10.72,-43.05 -15.71,-62.64l-33.25 -123.44c-5.55,-18.76 -10.26,-47.33 -18.21,-63.87l0 0zm-496.18 -410.38c0,71.42 56.65,63.43 111.92,63.43 55.97,0 111.93,0 167.89,0 19.56,29.22 60.15,199.93 69.35,236.56l187.35 693.19c17.05,60.36 -13.94,8.92 -85.68,62.03l-32.51 30.9c-68.26,86.94 -50.33,197.39 33,257.07 48.8,34.94 96.96,33.46 179.19,33.46 -2.7,11.59 -7.51,18.91 -10.37,30.67 -11.08,45.64 -5.08,99.93 16.51,142.27 55.2,108.33 211.85,148.29 311.94,48.14 96.99,-97.04 46.71,-186.02 43.8,-221.08l346.96 0c-62.26,117.66 35.83,306.45 218.64,274.58 96.74,-16.86 177.87,-119.18 152.27,-238.84 -3.95,-18.5 -11.49,-28.02 -12.75,-43.21 46.82,-12.5 48.06,-86.26 -0.19,-104.28 -25.78,-9.61 -487.03,-3.91 -537.03,-3.91 -40.99,0 -598.76,4.71 -624.68,-2.09 -48.42,-12.71 -59.8,-79.92 -17.77,-110.59 24.95,-18.22 159.26,-10.44 194.76,-10.44 134.21,0 922.3,4.37 952.31,-2.76 35.83,-8.5 64.15,-29.26 83.37,-54.67 22.5,-29.74 25.2,-59.3 35,-99.31l76.89 -333.48c13.3,-58.57 49.99,-187.3 49.99,-244.74 0,-43.75 -44.66,-93.6 -93.78,-100.22 -65.01,-8.76 -492.27,-4.25 -577.76,-4.25 -261.33,0 -510.87,-3.73 -772.26,-3.73 -3.83,-16.47 -9.95,-36.76 -14.12,-53.03l-30.21 -111.57c-20.68,-69.66 -18.25,-102.93 -62.84,-146.08 -24.03,-23.24 -59.54,-36.29 -105.48,-36.29l-186.53 0c-39.26,0 -67.16,24.76 -67.16,52.23l0 0.01z"/>
  </g>
 </g>
</svg>
