<?xml version="1.0" encoding="UTF-8"?>
<!DOCTYPE svg PUBLIC "-//W3C//DTD SVG 1.1//EN" "http://www.w3.org/Graphics/SVG/1.1/DTD/svg11.dtd">
<!-- Creator: CorelDRAW 2021 (64 Bit) -->
<svg xmlns="http://www.w3.org/2000/svg" xml:space="preserve" width="10.6546mm" height="10.4464mm" version="1.1" style="shape-rendering:geometricPrecision; text-rendering:geometricPrecision; image-rendering:optimizeQuality; fill-rule:evenodd; clip-rule:evenodd"
viewBox="0 0 138.05 135.36"
 xmlns:xlink="http://www.w3.org/1999/xlink"
 xmlns:xodm="http://www.corel.com/coreldraw/odm/2003">
 <defs>
  <style type="text/css">
   <![CDATA[
    .fil0 {fill:#09562F}
   ]]>
  </style>
 </defs>
 <g id="Camada_x0020_1">
  <metadata id="CorelCorpID_0Corel-Layer"/>
  <g id="_2007065635456">
   <g id="_1377381816080">
    <path class="fil0" d="M107.05 6.2c0,7.03 9.26,4.31 13.75,4.31l-31.21 31.34c-0.65,-0.46 -0.69,-0.59 -1.21,-1.08 -0.55,-0.51 -0.65,-0.5 -1.2,-0.96l-31.4 -26.57c-3.52,-2.84 -5.74,-5.76 -10.14,-1.32l-43.41 43.41c-1.54,1.52 -2.22,2.03 -2.22,4.52 0,3.33 3.83,5.6 6.91,3.95 2.21,-1.19 40.88,-41.19 43.24,-42.77 0.94,0.63 1.51,1.19 2.36,1.95l33.87 28.68c4.92,3.92 7.96,-1.09 13.44,-6.57 3.12,-3.12 6.05,-6.05 9.17,-9.17 1.46,-1.46 17.37,-17.62 18.54,-18.4 0,2.41 -0.67,5.98 -0.76,8.39 -0.21,5.39 8.21,7.11 9.52,0.9 0.51,-2.4 1.76,-21.75 1.76,-22.51 0,-1.95 -2.25,-4.31 -4.05,-4.31l-23.16 1.65c-1.91,0.33 -3.81,2.24 -3.81,4.55l0 -0z"/>
    <path class="fil0" d="M54.74 60.94l0 68.49c0,1.63 0.3,3.14 1.02,4.1 0.55,0.73 2.12,1.83 3.29,1.83l20.22 0c2.46,0 4.58,-2.12 4.58,-4.58l0 -51.77c0,-2.88 -4,-6.02 -6.4,-8.43 -2.54,-2.54 -4.88,-4.88 -7.42,-7.42 -1.87,-1.87 -5.59,-6.03 -7.52,-7.31 -3.65,-2.42 -7.78,-0.42 -7.78,5.08l0 0z"/>
    <path class="fil0" d="M93.83 79.54l0 50.96c0,2.54 2.04,4.85 4.58,4.85l19.95 0c2.54,0 4.58,-2.32 4.58,-4.85l0 -70.11c0,-1.6 -0.31,-2.8 -1.25,-3.87 -0.66,-0.76 -0.36,-0.59 -1.34,-1.09 -3.87,-1.96 -5.61,0.89 -9.07,4.35l-15.51 15.5c-1.21,1.19 -1.95,1.93 -1.95,4.25l0 0z"/>
    <path class="fil0" d="M15.91 78.46l0 52.85c0,2.07 2.32,4.04 4.58,4.04l19.68 0c2.26,0 4.58,-1.97 4.58,-4.04l0 -71.99c0,-4.25 -5.07,-5.83 -8.16,-3.03 -2.44,2.21 -4.78,4.78 -7.14,7.15l-10.65 10.65c-0.99,0.99 -2.9,2.6 -2.9,4.38l0 0z"/>
   </g>
  </g>
 </g>
</svg>
