<?xml version="1.0" encoding="UTF-8"?>
<!DOCTYPE svg PUBLIC "-//W3C//DTD SVG 1.1//EN" "http://www.w3.org/Graphics/SVG/1.1/DTD/svg11.dtd">
<!-- Creator: CorelDRAW 2021 (64 Bit) -->
<svg xmlns="http://www.w3.org/2000/svg" xml:space="preserve" width="27.721mm" height="24.2928mm" version="1.1" style="shape-rendering:geometricPrecision; text-rendering:geometricPrecision; image-rendering:optimizeQuality; fill-rule:evenodd; clip-rule:evenodd"
viewBox="0 0 221.14 193.8"
 xmlns:xlink="http://www.w3.org/1999/xlink"
 xmlns:xodm="http://www.corel.com/coreldraw/odm/2003">
 <defs>
  <style type="text/css">
   <![CDATA[
    .fil1 {fill:#09562F}
    .fil0 {fill:#09562F}
   ]]>
  </style>
 </defs>
 <g id="Camada_x0020_1">
  <metadata id="CorelCorpID_0Corel-Layer"/>
  <g id="_2374636617040">
   <path class="fil0" d="M0.92 68.28l14.26 0c0,0 29.23,-77.37 119.44,-67.39l-18.54 3.57c0,0 25.67,0.71 51.34,16.4l-2.5 11.77 16.4 16.76c0,0 -29.95,9.98 -34.94,-21.04 0,0 1.43,-4.28 -4.28,-7.13 -5.7,-2.85 -48.49,-15.69 -81.29,21.04l69.88 -0.36c0,0 13.19,0 27.09,25.31l15.33 0.35 0.36 7.13 -18.54 1.07c0,0 -14.97,-23.89 -26.74,-26.74 -11.77,-2.85 -79.15,-0.36 -79.15,-0.36 0,0 5.7,-14.26 21.39,-24.96 0,0 -16.76,3.92 -52.41,51.34l-14.26 0.71c0,0 -5.35,-2.5 -2.85,-7.49l0 0zm29.03 8.75c0,0 55.22,-10.37 112.6,0 0,0 -21.21,8.93 -28.21,17.84 0,0 -23.81,-1 -51.36,0.24 0,0 -20.25,-14.23 -33.03,-18.09z"/>
   <path class="fil0" d="M153.87 8.73c17.83,-14.27 49.96,-2.38 44.18,25.33l-5.34 1.63c0,0 -19.67,-22.66 -38.84,-26.96l0 0z"/>
   <path class="fil1" d="M193.26 65.71l10.46 -7.76c0,0 7.09,13.16 7.43,25.64 0.34,12.49 3.71,-8.1 -3.71,-27.67l3.71 -3.71c0,0 10.96,18.86 9.93,47.55 -1.21,34.08 -17.25,58.48 -45.46,76.82 -19.98,12.99 -48.39,22.14 -86.63,14.32l1.98 -3.37c0,0 16.74,3.79 24.77,-1.45 0,0 -24.55,5.58 -49.32,-16.29l3.57 -11.72 -15.07 -13.84c0,0 23.66,-8.03 33.6,14.61 0,0 2.12,7.03 1.23,10.6 0,0 37.48,16.73 71.57,-6.55 26.55,-18.14 41.57,-36.8 40.41,-69.67 -0.38,-10.76 -2.33,-22.54 -8.47,-27.52l0 0zm-154.02 90.15c0,0 14.42,18.81 39.19,28.02 -19.73,17.9 -53.63,-8.53 -39.19,-28.02z"/>
   <path class="fil0" d="M118.68 98.24c0,0 -15.43,6.03 -58.11,0.72 0,0 -21.94,-19.05 -42.2,-20.01 -20.25,-0.96 -18.33,6.27 -18.33,6.27l0 47.74c0,0 -0.48,12.78 8.2,13.75 8.68,0.96 31.34,1.2 31.34,1.2 0,0 7.23,0.48 10.13,-8.92l0.72 -7.72c0,0 20.98,-5.06 35.68,-3.62 0,0 12.54,-1.21 38.57,4.58 0,0 0,13.99 6.99,14.71 6.99,0.72 32.31,0.72 32.31,0.72 0,0 7.23,1.69 11.33,-10.13l1.21 -49.91c-1.27,-11.73 -13.25,-9.24 -21.06,-8.01 -14.2,2.24 -22.42,5.67 -36.81,18.62l0.01 -0zm-70.45 -1.31l-35.22 -11.12c0,0 -4.17,-2.09 -4.63,1.86 -0.46,3.94 3.25,13.21 8.34,14.37 3.17,0.72 6.79,1.26 11.36,1.34 6.2,0.11 13.31,-0.58 19.46,-1.34 1.85,-0.23 3.01,-3.01 0.7,-5.1l-0 0zm79.42 0l35.23 -11.12c0,0 4.17,-2.09 4.63,1.86 0.46,3.94 -3.25,13.21 -8.34,14.37 -3.17,0.72 -6.79,1.26 -11.36,1.34 -6.2,0.11 -13.32,-0.58 -19.46,-1.34 -1.85,-0.23 -3.01,-3.01 -0.7,-5.1l-0 0z"/>
  </g>
 </g>
</svg>
