<?xml version="1.0" encoding="UTF-8"?>
<!DOCTYPE svg PUBLIC "-//W3C//DTD SVG 1.1//EN" "http://www.w3.org/Graphics/SVG/1.1/DTD/svg11.dtd">
<!-- Creator: CorelDRAW 2021 (64 Bit) -->
<svg xmlns="http://www.w3.org/2000/svg" xml:space="preserve" width="16.0062mm" height="16.0062mm" version="1.1" style="shape-rendering:geometricPrecision; text-rendering:geometricPrecision; image-rendering:optimizeQuality; fill-rule:evenodd; clip-rule:evenodd"
viewBox="0 0 49.12 49.12"
 xmlns:xlink="http://www.w3.org/1999/xlink"
 xmlns:xodm="http://www.corel.com/coreldraw/odm/2003">
 <defs>
  <style type="text/css">
   <![CDATA[
    .fil0 {fill:#09562F}
   ]]>
  </style>
 </defs>
 <g id="Camada_x0020_1">
  <metadata id="CorelCorpID_0Corel-Layer"/>
  <g id="_1711905481552">
   <path class="fil0" d="M9.98 22.35c0,-3.55 1.17,-6.3 3.53,-8.66 4.23,-4.24 10.86,-4.59 15.72,-0.8 2.44,1.9 4.36,5.47 4.36,8.6 0,2.73 -0.19,3.86 -1.41,6.27 -0.26,0.52 -0.54,0.83 -0.8,1.31l7.7 7.75 -2.49 2.54 -7.77 -7.72c-0.86,0.48 -1.4,1.01 -2.7,1.48 -8.45,3.03 -16.13,-3.3 -16.13,-10.76zm13.52 -22.35l2.22 0c1.64,0.07 3.29,0.31 4.92,0.73 1.36,0.35 3.17,0.97 4.37,1.57l2.9 1.61c1.31,0.82 2.98,2.2 4.03,3.26 2.07,2.07 3.62,4.32 4.9,6.99 1.75,3.64 2.27,6.83 2.27,11.26 0,2.99 -1,6.95 -2.3,9.59 -2.69,5.46 -6.53,9.27 -11.86,11.83 -3.62,1.74 -6.85,2.27 -11.26,2.27 -5.95,0 -12.3,-2.95 -16.53,-7.17 -2.07,-2.07 -3.62,-4.32 -4.9,-6.99 -1.74,-3.61 -2.27,-6.85 -2.27,-11.26 0,-4.48 1.93,-9.88 4.49,-13.35 0.84,-1.14 1.68,-2.18 2.68,-3.17 4.34,-4.34 10.21,-6.89 16.33,-7.17z"/>
   <path class="fil0" d="M13.62 22.07c0,5.61 5.43,10.01 11.46,7.62 2.68,-1.06 4.95,-4.07 4.95,-7.33 0,-4.07 -2.57,-7.33 -6.47,-8.21 -0.38,-0.09 -1.48,-0.26 -1.87,-0.23 -2.23,0.15 -4.13,0.9 -5.65,2.42 -1.25,1.25 -2.42,3.27 -2.42,5.73z"/>
  </g>
 </g>
</svg>
