<?xml version="1.0" encoding="UTF-8"?>
<!DOCTYPE svg PUBLIC "-//W3C//DTD SVG 1.1//EN" "http://www.w3.org/Graphics/SVG/1.1/DTD/svg11.dtd">
<!-- Creator: CorelDRAW 2021 (64 Bit) -->
<svg xmlns="http://www.w3.org/2000/svg" xml:space="preserve" width="10.8095mm" height="14.6723mm" version="1.1" style="shape-rendering:geometricPrecision; text-rendering:geometricPrecision; image-rendering:optimizeQuality; fill-rule:evenodd; clip-rule:evenodd"
viewBox="0 0 30.28 41.1"
 xmlns:xlink="http://www.w3.org/1999/xlink"
 xmlns:xodm="http://www.corel.com/coreldraw/odm/2003">
 <defs>
  <style type="text/css">
   <![CDATA[
    .fil0 {fill:#09562F}
   ]]>
  </style>
 </defs>
 <g id="Camada_x0020_1">
  <metadata id="CorelCorpID_0Corel-Layer"/>
  <g id="_1792906488784">
   <path class="fil0" d="M2.13 33.47l-0.01 -3.57c0.05,-1.06 1,-0.73 3.34,-0.73 2.56,0 2.15,-0.24 2.15,2.96 0,0.84 0.27,1.75 -0.63,1.84 -0.7,0.07 -1.98,0.01 -2.74,0.01 -0.78,0 -1.99,0.19 -2.11,-0.51zm6.84 -1.7c-0.31,-0.86 0.75,-0.78 1.49,-0.78l15.11 0c0.75,0 1.89,-0.16 2.11,0.37 0.39,0.93 -1.17,0.77 -1.5,0.77l-15.11 -0c-0.72,0 -1.92,0.15 -2.11,-0.37zm-6.84 -8.66c0,-1.03 0.49,-0.94 1.7,-0.94 3.13,-0 3.78,-0.31 3.78,0.94l-0 3.04c0,0.62 -0.19,0.84 -0.94,0.84l-3.66 0c-0.62,0 -0.89,-0.24 -0.89,-0.75l0 -3.13zm7.72 2.04c-1.29,0 -1.15,-1.13 -0.1,-1.13l17.15 0 -0.1 0c1.3,0 1.28,1.13 0.03,1.13l-16.97 0zm-2.32 -9.77c0.15,0.62 0.08,1.65 0.08,2.37 0,2.56 0.42,2.23 -2.96,2.23 -0.7,0 -2.17,0.19 -2.43,-0.27 -0.14,-0.25 -0.09,-1.87 -0.09,-2.31 0,-0.64 -0.21,-1.81 0.31,-2.11 0.28,-0.16 4.47,-0.24 5.09,0.1zm2.32 2.78c-1.28,0 -1.29,-1.15 0.1,-1.15l16.74 0c1.53,0 1.31,1.15 0.1,1.15l-16.94 0zm-9.08 -11.7c-0.36,0.28 -0.62,0.34 -0.72,0.92 -0.12,0.78 0,27.97 -0.02,31.88 -0.01,1.07 0.2,1.71 1.45,1.75 2.23,0.08 4.68,0 6.94,0l13.98 0c7.28,0 7.88,0.71 7.88,-2.2l0 -30.37c0,-1.06 0.04,-1.85 -1.09,-2.06l-5.13 -0.02c-0,0.34 -0.01,0.68 -0,1.02l-0.09 0.76c-0,-0.01 -0.03,0.04 -0.04,0.06 -0.26,1.38 -1.97,1.19 -3.67,1.19l-10.21 0c-0.62,0 -1.97,0.06 -2.44,-0.06 -0.56,-0.14 -1.14,-0.57 -1.19,-1.1 -0.38,-0.23 -0.17,-1.43 -0.17,-1.86 -1.59,0.08 -3.67,0.05 -5.27,0.04l-0.22 0.06z"/>
   <path class="fil0" d="M11.84 3.21c-1.05,0.22 -3.5,-0.2 -4.17,0.29 -0.16,0.56 -0.2,4.38 0.1,4.62 0.28,0.23 12.06,0.1 13.82,0.11 1.6,0.02 1.07,-0.37 1.11,-3.9 0.01,-1.24 -0.19,-1.05 -1.52,-1.04 -4.38,0.01 -2,-0.06 -3.36,-2 -1.2,-1.71 -4.07,-1.77 -5.33,-0.01 -0.49,0.7 -0.29,1.4 -0.65,1.91z"/>
   <path class="fil0" d="M6.22 23.43l-0.04 2.3c-0.44,-0.07 -0.85,-0.05 -1.34,-0.05 -0.83,0 -0.97,0.06 -1.26,-0.1l2.47 0.04 0 -2.09 -2.43 0.02c0.27,-0.12 0.89,-0.05 1.21,-0.05 0.5,0 0.89,0.03 1.37,-0.06zm-2.81 2.35l2.84 0.01 -0 -2.44 -2.85 0.01 0.01 2.42z"/>
   <path class="fil0" d="M3.56 30.56c0.19,-0.11 -0.13,-0.05 0.36,-0.13 0.22,-0.03 1.63,0.04 2.3,-0.05 -0.1,0.66 -0,1.27 -0.03,1.84 -0.02,0.43 -0.06,0.36 -0.14,0.45l0.02 -2.15 -2.51 0.03zm2.71 2.28l-0.01 0.01 0.01 -2.5 -2.87 0 0.01 0.02c0.16,0.11 0.17,-0.06 0.16,0.51l-0.05 1.82c0.51,-0.02 2.33,-0.16 2.74,0.15z"/>
   <path class="fil0" d="M3.61 16.31l0.01 0.01 -0.06 2.35 2.52 -0.03 -0.01 -2.22c-0.45,0 -2.1,0.12 -2.47,-0.1z"/>
   <path class="fil0" d="M3.42 18.82c0.64,-0.2 2.1,-0.13 2.81,-0.04 -0.11,-0.58 -0.11,-1.89 -0.01,-2.47l-2.62 -0c0.37,0.22 2.02,0.1 2.47,0.1l0.01 2.22 -2.52 0.03 0.06 -2.35c-0.27,0.16 -0.12,-0.03 -0.2,0.27l0 2.23z"/>
   <path class="fil0" d="M0.77 6.47l0.22 -0.06c1.6,0.02 3.68,0.04 5.27,-0.04 -0,0.44 -0.21,1.64 0.17,1.86l-0.09 -1.88c-0.52,-0.15 -4.89,-0.13 -5.35,0.06 -0.25,-0.05 -0.22,-0.12 -0.22,0.06z"/>
   <path class="fil0" d="M6.28 32.84c-0.41,-0.31 -2.24,-0.17 -2.74,-0.15l0.05 -1.82c0,-0.57 0,-0.4 -0.16,-0.51l0.01 2.47 2.85 0z"/>
   <path class="fil0" d="M3.41 25.79c0.35,0.2 2.59,0.12 2.94,0.05l-0.01 -2.51c-0.43,-0.12 -1.69,-0.06 -2.31,-0.06 -0.38,-0 -0.41,-0.02 -0.63,0.1l2.85 -0.01 0 2.44 -2.84 -0.01z"/>
   <path class="fil0" d="M23.93 8.21c0.01,-0.02 0.04,-0.07 0.04,-0.06l0.09 -0.76c-0,-0.34 0,-0.68 0,-1.02l5.13 0.02c-0.05,-0.02 -0.01,-0.05 -0.25,-0.09 -0.68,-0.11 -4.7,-0.03 -4.97,0.04l-0.04 1.86z"/>
   <path class="fil0" d="M6.22 23.43c-0.49,0.09 -0.88,0.06 -1.37,0.06 -0.33,-0 -0.94,-0.06 -1.21,0.05l2.43 -0.02 -0 2.09 -2.47 -0.04c0.29,0.16 0.43,0.1 1.26,0.1 0.49,-0 0.89,-0.02 1.34,0.05l0.04 -2.3z"/>
   <path class="fil0" d="M3.42 18.82l-0 -0.01 2.89 0.01 -0.03 -2.51 -0.06 0.01c-0.1,0.58 -0.1,1.89 0.01,2.47 -0.71,-0.09 -2.17,-0.16 -2.81,0.04z"/>
   <path class="fil0" d="M3.56 30.56l2.51 -0.03 -0.02 2.15c0.08,-0.09 0.12,-0.03 0.14,-0.45 0.02,-0.57 -0.07,-1.18 0.03,-1.84 -0.67,0.09 -2.08,0.01 -2.3,0.05 -0.5,0.08 -0.18,0.02 -0.36,0.13z"/>
   <path class="fil0" d="M6.27 32.84c0.24,-0.25 0.13,-2.3 0.06,-2.55l-2.3 -0.05c-0.11,-0 -0.3,-0 -0.4,0.01 -0.19,0.03 -0.13,0.04 -0.22,0.08l2.87 -0 -0.01 2.5z"/>
   <path class="fil0" d="M3.42 18.81c0.16,0.09 -0.18,0.05 0.31,0.09l2.64 -0.19c0.08,-0.36 0.08,-2.18 -0.08,-2.41l0.03 2.51 -2.89 -0.01z"/>
  </g>
 </g>
</svg>
