<?xml version="1.0" encoding="UTF-8"?>
<!DOCTYPE svg PUBLIC "-//W3C//DTD SVG 1.1//EN" "http://www.w3.org/Graphics/SVG/1.1/DTD/svg11.dtd">
<!-- Creator: CorelDRAW 2021 (64 Bit) -->
<svg xmlns="http://www.w3.org/2000/svg" xml:space="preserve" width="8.7456mm" height="10.4864mm" version="1.1" style="shape-rendering:geometricPrecision; text-rendering:geometricPrecision; image-rendering:optimizeQuality; fill-rule:evenodd; clip-rule:evenodd"
viewBox="0 0 177.07 212.32"
 xmlns:xlink="http://www.w3.org/1999/xlink"
 xmlns:xodm="http://www.corel.com/coreldraw/odm/2003">
 <defs>
  <style type="text/css">
   <![CDATA[
    .fil0 {fill:#09562F}
   ]]>
  </style>
 </defs>
 <g id="Camada_x0020_1">
  <metadata id="CorelCorpID_0Corel-Layer"/>
  <g id="_2007080055984">
   <g id="_1377669873584">
    <path class="fil0" d="M-0 170.44c0,14.57 0.89,24.31 12.53,33.91 2.32,1.91 5.46,3.82 8.32,4.96 4.04,1.6 8.94,3.02 14.4,3.02l106.58 0c5.22,0 10.45,-1.27 14.12,-2.89 3.89,-1.71 7.55,-3.65 10.67,-6.75 10.86,-10.76 10.46,-20.12 10.46,-33.91 0,-8.43 -1.52,-17.48 -3.15,-24.63 -3.42,-15 -10.88,-30.66 -25.31,-37.72 -5.41,-2.64 -11.84,-4 -18.4,-4 -9.13,0 -29.22,28.49 -65.11,9.96 -5.91,-3.05 -12.76,-9.96 -19.49,-9.96 -24.52,0 -38.37,20.89 -42.54,42.47 -0.78,4.05 -1.63,7.95 -2.13,11.97 -0.55,4.46 -0.95,8.81 -0.95,13.57l0 0z"/>
    <path class="fil0" d="M36.08 48.52c0,6.52 -0.1,9.38 1.57,15.85 0.48,1.86 0.88,2.94 1.48,4.74l2.83 6.29c12.52,22.98 40.27,33.49 66.1,22.72 3.35,-1.4 9.06,-4.95 11.68,-7.4 5.86,-5.48 10.46,-10.05 14.07,-17.86 10.43,-22.56 3.21,-48.28 -16.27,-63.08 -4.88,-3.71 -10.88,-6.57 -16.76,-8.12 -3.55,-0.94 -7.33,-1.49 -11.18,-1.65l-4.92 0c-6.9,0.3 -13.73,1.84 -19.44,4.69 -16.19,8.08 -29.16,25.29 -29.16,43.83l0 0z"/>
   </g>
  </g>
 </g>
</svg>
