<?xml version="1.0" encoding="UTF-8"?>
<!DOCTYPE svg PUBLIC "-//W3C//DTD SVG 1.1//EN" "http://www.w3.org/Graphics/SVG/1.1/DTD/svg11.dtd">
<!-- Creator: CorelDRAW 2021 (64 Bit) -->
<svg xmlns="http://www.w3.org/2000/svg" xml:space="preserve" width="10.6658mm" height="12.7698mm" version="1.1" style="shape-rendering:geometricPrecision; text-rendering:geometricPrecision; image-rendering:optimizeQuality; fill-rule:evenodd; clip-rule:evenodd"
viewBox="0 0 70.5 84.41"
 xmlns:xlink="http://www.w3.org/1999/xlink"
 xmlns:xodm="http://www.corel.com/coreldraw/odm/2003">
 <defs>
  <style type="text/css">
   <![CDATA[
    .fil0 {fill:#09562F}
   ]]>
  </style>
 </defs>
 <g id="Camada_x0020_1">
  <metadata id="CorelCorpID_0Corel-Layer"/>
  <g id="_2535498758784">
   <path class="fil0" d="M31.62 7.25c-5.01,1.17 -6.76,1.61 -11.05,4.62 -1.66,1.17 -3.59,3.06 -4.83,4.73 -11.04,14.88 0.71,25.45 -10.57,39.88 -2.47,3.15 -4.67,3.27 -5.15,7.39 -0.35,2.99 2.49,6.52 6.04,6.52l58.36 0c3.47,0 6.29,-3.39 6.06,-6.39 -0.45,-5.67 -6.35,-5.35 -9.54,-15.69 -3.11,-10.06 2.69,-19.75 -6.2,-31.72 -0.25,-0.34 -0.38,-0.52 -0.67,-0.82 -1.76,-1.84 -1.74,-2.1 -4.07,-3.85 -0.64,-0.48 -1.14,-0.88 -1.86,-1.28 -4.27,-2.36 -4.6,-2.32 -9.28,-3.41 0,-3.47 0.52,-7.25 -3.96,-7.25 -1.45,0 -2.61,1.14 -3.02,2.26 -0.44,1.21 -0.28,3.41 -0.28,5l0 0z"/>
   <path class="fil0" d="M34.59 84.41c4.28,0 6.41,-0.84 9.42,-3.27 0.89,-0.72 2.03,-2.16 2.61,-3.16 1.34,-2.32 1.15,-3.06 1.65,-4.12l-26.05 0c0.69,1.44 0.97,4.52 4.17,7.21 1.87,1.57 4.85,3.35 8.19,3.35l0 0z"/>
  </g>
 </g>
</svg>
