<?xml version="1.0" encoding="UTF-8"?>
<!DOCTYPE svg PUBLIC "-//W3C//DTD SVG 1.1//EN" "http://www.w3.org/Graphics/SVG/1.1/DTD/svg11.dtd">
<!-- Creator: CorelDRAW 2021 (64 Bit) -->
<svg xmlns="http://www.w3.org/2000/svg" xml:space="preserve" width="10.6658mm" height="12.7741mm" version="1.1" style="shape-rendering:geometricPrecision; text-rendering:geometricPrecision; image-rendering:optimizeQuality; fill-rule:evenodd; clip-rule:evenodd"
viewBox="0 0 49.76 59.59"
 xmlns:xlink="http://www.w3.org/1999/xlink"
 xmlns:xodm="http://www.corel.com/coreldraw/odm/2003">
 <defs>
  <style type="text/css">
   <![CDATA[
    .fil0 {fill:#FFCC29}
   ]]>
  </style>
 </defs>
 <g id="Camada_x0020_1">
  <metadata id="CorelCorpID_0Corel-Layer"/>
  <g id="_2226231412208">
   <g id="_2535498758784">
    <path class="fil0" d="M22.32 5.13c-3.54,0.83 -4.77,1.14 -7.8,3.26 -1.17,0.83 -2.53,2.16 -3.41,3.34 -7.79,10.5 0.5,17.96 -7.46,28.15 -1.74,2.22 -3.3,2.31 -3.63,5.22 -0.25,2.11 1.76,4.6 4.26,4.6l41.19 0c2.45,0 4.44,-2.39 4.28,-4.51 -0.32,-4 -4.48,-3.78 -6.73,-11.07 -2.2,-7.1 1.9,-13.94 -4.38,-22.39 -0.18,-0.24 -0.27,-0.37 -0.47,-0.58 -1.24,-1.3 -1.23,-1.48 -2.87,-2.72 -0.45,-0.34 -0.8,-0.62 -1.31,-0.9 -3.01,-1.67 -3.25,-1.64 -6.55,-2.41 0,-2.45 0.37,-5.12 -2.79,-5.12 -1.02,0 -1.84,0.8 -2.13,1.6 -0.31,0.85 -0.2,2.41 -0.2,3.53l0 0 0.01 0.01z"/>
    <path class="fil0" d="M24.42 59.59c3.02,0 4.52,-0.59 6.65,-2.31 0.63,-0.51 1.43,-1.52 1.84,-2.23 0.95,-1.64 0.81,-2.16 1.16,-2.91l-18.38 0c0.49,1.02 0.68,3.19 2.94,5.09 1.32,1.11 3.42,2.36 5.78,2.36l0 0 0.01 -0.01z"/>
   </g>
  </g>
 </g>
</svg>
