<?xml version="1.0" encoding="UTF-8"?>
<!DOCTYPE svg PUBLIC "-//W3C//DTD SVG 1.1//EN" "http://www.w3.org/Graphics/SVG/1.1/DTD/svg11.dtd">
<!-- Creator: CorelDRAW 2021 (64 Bit) -->
<svg xmlns="http://www.w3.org/2000/svg" xml:space="preserve" width="48mm" height="32mm" version="1.1" style="shape-rendering:geometricPrecision; text-rendering:geometricPrecision; image-rendering:optimizeQuality; fill-rule:evenodd; clip-rule:evenodd"
viewBox="0 0 1684.13 1122.76"
 xmlns:xlink="http://www.w3.org/1999/xlink"
 xmlns:xodm="http://www.corel.com/coreldraw/odm/2003">
 <defs>
  <style type="text/css">
   <![CDATA[
    .fil0 {fill:#09562F}
   ]]>
  </style>
 </defs>
 <g id="Camada_x0020_1">
  <metadata id="CorelCorpID_0Corel-Layer"/>
  <g id="_2007080552656">
   <path class="fil0" d="M-0 122.8c0,49.71 9.4,81.35 62.66,114.98 37.37,23.6 78.49,31.21 144.04,31.21l1270.28 0c84.99,0 147.57,-16.24 185.4,-69.21 57.12,-79.99 1.81,-199.79 -166.6,-199.79l-1307.86 0c-57.79,0 -98.24,12.01 -130.49,32.97 -24.68,16.04 -57.42,55.91 -57.42,89.83z"/>
   <path class="fil0" d="M-0 979.49c0,43.76 14.51,83.02 55.76,108.65 32.43,20.16 67.24,34.61 124.63,34.61l1322.89 0c57.91,0 94.43,-14.89 126.72,-35.91 66.89,-43.53 76.75,-137.62 0.71,-194.81l-9.95 -6.87c-36.1,-23.53 -79.06,-31.41 -143.79,-31.41l-1270.28 0c-64.72,0 -107.69,7.88 -143.78,31.41 -34.74,22.64 -62.92,57.85 -62.92,94.32z"/>
   <path class="fil0" d="M-0 555.53c0,95.14 84.54,140.34 195.43,140.34l1292.83 0c30.65,0 57.44,-2.55 79.49,-8.33 175.47,-46 152.85,-260.66 -71.97,-260.66l-1307.86 0c-30.43,0 -51.73,3.05 -74.78,9.07 -26.54,6.94 -37.01,14.02 -56.85,25.94 -31.5,18.93 -56.28,60.1 -56.28,93.63z"/>
  </g>
 </g>
</svg>
