<?xml version="1.0" encoding="UTF-8"?>
<!DOCTYPE svg PUBLIC "-//W3C//DTD SVG 1.1//EN" "http://www.w3.org/Graphics/SVG/1.1/DTD/svg11.dtd">
<!-- Creator: CorelDRAW 2021 (64 Bit) -->
<svg xmlns="http://www.w3.org/2000/svg" xml:space="preserve" width="10.1705mm" height="10.0861mm" version="1.1" style="shape-rendering:geometricPrecision; text-rendering:geometricPrecision; image-rendering:optimizeQuality; fill-rule:evenodd; clip-rule:evenodd"
viewBox="0 0 25.2 24.99"
 xmlns:xlink="http://www.w3.org/1999/xlink"
 xmlns:xodm="http://www.corel.com/coreldraw/odm/2003">
 <defs>
  <style type="text/css">
   <![CDATA[
    .fil0 {fill:#09562F}
   ]]>
  </style>
 </defs>
 <g id="Camada_x0020_1">
  <metadata id="CorelCorpID_0Corel-Layer"/>
  <g id="_2049400787200">
   <path class="fil0" d="M10.51 16.31c0,-0.49 0.69,-0.37 1.2,-0.37 0.33,0 0.42,0.73 -0.1,0.73 -0.41,0 -1.1,0.1 -1.1,-0.37zm-1.62 0.37c-0.45,0 -1.05,0.11 -1.05,-0.37 0,-0.49 0.4,-0.37 1.1,-0.37 0.54,0 0.46,0.73 -0.05,0.73zm-3.76 -0.37c0,-0.49 0.69,-0.37 1.2,-0.37 0.33,0 0.42,0.73 -0.1,0.73 -0.41,0 -1.1,0.1 -1.1,-0.37zm2.72 -1.99c0,-0.13 0.01,-0.15 0.08,-0.24 0.15,-0.19 1.39,-0.3 1.39,0.24 0,0.49 -0.5,0.37 -1.2,0.37 -0.17,0 -0.26,-0.19 -0.26,-0.37zm2.67 0c0,-0.47 0.69,-0.37 1.1,-0.37 0.52,0 0.44,0.73 0.1,0.73 -0.52,0 -1.2,0.13 -1.2,-0.37zm-5.39 0c0,-0.47 0.69,-0.37 1.1,-0.37 0.52,0 0.44,0.73 0.1,0.73 -0.52,0 -1.2,0.13 -1.2,-0.37zm3.76 -1.57c-0.65,0 -1.05,0.1 -1.05,-0.47 0,-0.41 1.46,-0.49 1.46,0.05 0,0.25 -0.17,0.42 -0.42,0.42zm2.09 -0.78c0.5,0 0.99,-0.08 0.99,0.42 0,0.47 -0.56,0.37 -1.05,0.37 -0.56,0 -0.53,-0.78 0.05,-0.78zm-5.39 0c0.5,0 0.99,-0.08 0.99,0.42 0,0.47 -0.56,0.37 -1.05,0.37 -0.56,0 -0.53,-0.78 0.05,-0.78zm-0.63 -2.09l0 -1.73c0,-0.12 0.14,-0.26 0.26,-0.26l6.69 0c0.17,0 0.26,0.19 0.26,0.37l0 1.67c0,0.12 -0.14,0.26 -0.26,0.26l-6.75 0c-0.16,0 -0.21,-0.15 -0.21,-0.31zm-4.97 8.78l25.15 0 -3.15 -12.07c-0.14,-0.53 -0.59,-0.93 -1.14,-1.06l0 3.14c0.56,0.05 0.67,0.78 -0.21,0.78l-6.38 0c-0.7,0 -0.74,-0.77 -0.1,-0.78l0 -3.19 -9.57 0c-0.56,0 -1.12,0.52 -1.31,0.89 -0.12,0.24 -3.08,11.35 -3.3,12.29z"/>
   <path class="fil0" d="M10.61 22.22c0,-0.87 1.18,-1.26 1.74,-0.64 0.82,0.9 -0.51,2.33 -1.44,1.39 -0.16,-0.16 -0.3,-0.43 -0.3,-0.75zm-10.61 1.15c0,0.92 0.83,1.62 1.78,1.62l21.65 0c0.58,0 0.96,-0.19 1.28,-0.5l0.05 -0.05c0.27,-0.29 0.45,-0.63 0.45,-1.07l0 -3.92 -25.2 0 0 3.92z"/>
   <path class="fil0" d="M3.76 0.52l0 2.46c0,0.39 0.34,0.52 0.73,0.52l2.14 0 0 1.2 3.14 0 0 -1.2 2.25 0c0.33,0 0.63,-0.14 0.63,-0.47l0 -2.56c0,-0.32 -0.25,-0.47 -0.58,-0.47l-7.79 0c-0.29,0 -0.52,0.23 -0.52,0.52z"/>
   <path class="fil0" d="M17.57 5.65c-1.36,0 -1.25,-1.83 -0.05,-1.83 0.54,0 0.9,0.42 0.92,0.89 0.02,0.48 -0.37,0.94 -0.87,0.94zm-2.61 -3.03l0 6.07 1.05 0c0.33,-1.42 2.21,-1.55 2.84,-0.44 0.3,0.53 -0.17,0.44 1.24,0.44l0 -6.07c0,-0.32 -0.25,-0.47 -0.58,-0.47l-4.08 0c-0.26,0 -0.47,0.21 -0.47,0.47z"/>
  </g>
 </g>
</svg>
