<?xml version="1.0" encoding="UTF-8"?>
<!DOCTYPE svg PUBLIC "-//W3C//DTD SVG 1.1//EN" "http://www.w3.org/Graphics/SVG/1.1/DTD/svg11.dtd">
<!-- Creator: CorelDRAW 2021 (64 Bit) -->
<svg xmlns="http://www.w3.org/2000/svg" xml:space="preserve" width="16.9032mm" height="16.9032mm" version="1.1" style="shape-rendering:geometricPrecision; text-rendering:geometricPrecision; image-rendering:optimizeQuality; fill-rule:evenodd; clip-rule:evenodd"
viewBox="0 0 62.56 62.56"
 xmlns:xlink="http://www.w3.org/1999/xlink"
 xmlns:xodm="http://www.corel.com/coreldraw/odm/2003">
 <defs>
  <style type="text/css">
   <![CDATA[
    .fil0 {fill:#09562F}
   ]]>
  </style>
 </defs>
 <g id="Camada_x0020_1">
  <metadata id="CorelCorpID_0Corel-Layer"/>
  <path class="fil0" d="M27.98 27.74c3.54,0 7.09,0 10.63,0 1.63,0 3.75,-0.18 5,0.26 2.89,1.01 2.95,5.43 0.09,6.54 -1.23,0.48 -3.45,0.29 -5.09,0.29 -3.54,0 -7.09,0 -10.63,0 0.24,0.46 0.19,0.34 0.52,0.71 0.26,0.29 0.33,0.43 0.62,0.73l1.17 1.39c0.37,0.46 0.83,0.91 1.17,1.4 2.51,3.63 -2.36,7.38 -5.34,4.61l-1.4 -1.65c-0.52,-0.55 -0.89,-1.1 -1.41,-1.65l-4.95 -5.8c-1.88,-2.02 -2.3,-3.78 -0.43,-5.99l8.26 -9.71c2.49,-2.14 5.95,-0.16 5.95,2.53 0,1.65 -1.01,2.53 -1.79,3.46l-2.36 2.89zm1.95 -27.74l2.27 0c2.68,0.1 5.39,0.56 8.25,1.34 0.5,0.14 0.88,0.26 1.39,0.44 3.12,1.09 5.96,2.78 8.57,4.74 2.31,1.74 4.91,4.43 6.5,6.81l0.78 1.17c0.68,1.07 1.52,2.47 2,3.62 0.39,0.95 0.77,1.68 1.11,2.68 1.07,3.15 1.64,6.13 1.75,9.11l0 2.27c-0.1,2.68 -0.56,5.39 -1.34,8.25 -0.8,2.93 -2.08,5.23 -3.61,7.75 -0.7,1.15 -1.56,2.2 -2.39,3.23 -0.37,0.45 -0.55,0.61 -0.93,1.02 -0.34,0.37 -0.47,0.6 -0.85,0.98 -0.39,0.39 -0.67,0.55 -1.04,0.91 -1.48,1.42 -3.64,3.01 -5.47,4.06 -1.54,0.88 -3.46,1.82 -5.17,2.41 -0.91,0.31 -2.03,0.69 -2.92,0.87 -3.73,0.78 -4.41,0.88 -8.22,0.88l-0.18 0c-7.42,0 -14.89,-3.26 -20.31,-8.28 -0.37,-0.34 -0.6,-0.47 -0.98,-0.85 -1.63,-1.63 -3.78,-4.43 -4.97,-6.51 -1.34,-2.35 -2.72,-5.42 -3.28,-8.09 -0.78,-3.73 -0.88,-4.41 -0.88,-8.22l0 -0.18c0,-2.57 0.44,-4.64 0.91,-6.79 0.71,-3.3 2.32,-6.42 4.05,-9.27 0.29,-0.47 0.45,-0.65 0.74,-1.1 0.32,-0.49 0.5,-0.67 0.84,-1.12 0.31,-0.41 0.52,-0.65 0.82,-1.01l1.78 -2c3.08,-3.08 7.57,-5.98 11.68,-7.38 3.15,-1.07 6.13,-1.64 9.11,-1.75z"/>
 </g>
</svg>
